<?xml version="1.0" encoding="utf-8"?>
<!-- Generator: Adobe Illustrator 26.5.0, SVG Export Plug-In . SVG Version: 6.00 Build 0)  -->
<svg version="1.0" id="katman_1" xmlns="http://www.w3.org/2000/svg" xmlns:xlink="http://www.w3.org/1999/xlink"
	 viewBox="200 0 50 300" width="800px" height="800px" style="enable-background:new 0 0 470 328;" xml:space="preserve">
<style type="text/css">
	.st0{fill:url(#SVGID_1_);}
	.st1{fill:url(#SVGID_00000124149934338184150530000000540076193688390291_);}
	.st2{fill:url(#SVGID_00000035515875850978760430000013156221365275592891_);}
	.st3{fill:url(#SVGID_00000062188861359444868940000010023161311129825425_);}
	.st4{fill:#FFFFFF;}
</style>
<g>

		<linearGradient id="SVGID_1_" gradientUnits="userSpaceOnUse" x1="-356.5964" y1="582.9491" x2="-356.663" y2="583.2294" gradientTransform="matrix(162.5744 0 0 -231.1883 58174.4766 134962.9375)">
		<stop  offset="0" style="stop-color:#07C3F2"/>
		<stop  offset="1" style="stop-color:#6B57FF"/>
	</linearGradient>
	<path class="st0" d="M172.21,257.37L118.56,116.3c-6.81-17.87-4.53-37.94,6.11-53.84s28.32-25.65,47.44-26.18
		c26.07-0.67,49.49,15.85,57.6,40.64l46.96,143.42C286.13,249.27,182.83,285.32,172.21,257.37L172.21,257.37z"/>

		<linearGradient id="SVGID_00000163795821321525014920000000700116993186362285_" gradientUnits="userSpaceOnUse" x1="-357.801" y1="582.7316" x2="-357.4927" y2="582.8428" gradientTransform="matrix(254.4607 0 0 -182.8528 91246.6484 106764.2734)">
		<stop  offset="0" style="stop-color:#07C3F2"/>
		<stop  offset="1" style="stop-color:#009AE5"/>
	</linearGradient>
	<path style="fill:url(#SVGID_00000163795821321525014920000000700116993186362285_);" d="M333.19,212.61l-131.49,71.11
		c-15.55,8.41-33.9,9.97-50.64,4.3c-16.74-5.67-30.38-18.04-37.62-34.17c-7.14-15.81-7.53-33.85-1.06-49.96
		c6.46-16.1,19.21-28.87,35.3-35.37l138.66-55.99c23.59-9.52,50.63-1.68,65.46,18.98c9.32,12.92,12.61,29.23,9.05,44.76
		S347.21,205.04,333.19,212.61L333.19,212.61z"/>

		<linearGradient id="SVGID_00000060007752896443020360000005392374230700840068_" gradientUnits="userSpaceOnUse" x1="-357.3762" y1="582.6602" x2="-357.8984" y2="582.9509" gradientTransform="matrix(248.5927 0 0 -183.3605 89140.7969 106988.7188)">
		<stop  offset="0" style="stop-color:#009AE5"/>
		<stop  offset="1" style="stop-color:#6B57FF"/>
	</linearGradient>
	<path style="fill:url(#SVGID_00000060007752896443020360000005392374230700840068_);" d="M283.51,213.83l-135.78-65.62
		c-17.22-8.34-29.33-24.5-32.51-43.36s2.97-38.1,16.51-51.62c18.45-18.44,46.84-22.54,69.76-10.08l132.53,71.99
		c26.68,14.52,36.73,47.79,22.56,74.66C342.67,216.19,310.36,226.81,283.51,213.83L283.51,213.83z"/>

		<linearGradient id="SVGID_00000070094530998187817140000014537020285508065924_" gradientUnits="userSpaceOnUse" x1="-357.1258" y1="582.9464" x2="-356.8737" y2="583.6508" gradientTransform="matrix(186.355 0 0 -255.6216 66727.8125 149253.875)">
		<stop  offset="0.3" style="stop-color:#07C3F2"/>
		<stop  offset="0.6" style="stop-color:#3BEA62"/>
	</linearGradient>
	<path style="fill:url(#SVGID_00000070094530998187817140000014537020285508065924_);" d="M144.59,286.2
		c-18.18-8.29-31.47-24.57-35.95-44.05c-4.48-19.47,0.35-39.92,13.07-55.33L236.58,48.01c9.19-11.13,24.68-14.73,37.84-8.8
		c15.23,6.86,22.66,24.25,17.09,40l-59.89,169.93c-5.94,16.99-18.77,30.7-35.33,37.75S160.96,293.69,144.59,286.2L144.59,286.2z"/>
	<polygon points="155.04,84.01 315.03,84.01 315.03,243.99 155.04,243.99 	"/>
	<path class="st4" d="M174.99,213.75h60v10h-60V213.75z M191.12,115.98H172.8v-12.21h49.86v12.21h-18.32v47.97h-13.23V115.98z
		 M227.65,134.52l0-0.65c-0.16-8.35,3.11-16.39,9.04-22.27c5.93-5.88,14-9.07,22.35-8.85c8.87-0.45,17.51,2.91,23.73,9.25
		l-8.43,9.71c-4.05-4.2-9.58-6.64-15.41-6.8c-10.02,0-17.28,8.24-17.44,18.32l0,0.53c0,10.32,7.15,18.9,17.44,18.9
		c6.1,0,10.1-2.09,14.24-5.62l0.64-0.55c0.32-0.28,0.64-0.57,0.96-0.87l8.43,8.51c-6.16,7.15-15.26,11.08-24.69,10.67
		c-8.21,0.13-16.12-3.07-21.93-8.86C230.88,150.25,227.67,142.55,227.65,134.52L227.65,134.52z"/>
</g>
</svg>
