<?xml version="1.0" encoding="UTF-8"?>
<!DOCTYPE svg PUBLIC "-//W3C//DTD SVG 1.1//EN" "http://www.w3.org/Graphics/SVG/1.1/DTD/svg11.dtd">
<svg xmlns="http://www.w3.org/2000/svg" version="1.1" width="474px" height="473px" style="shape-rendering:geometricPrecision; text-rendering:geometricPrecision; image-rendering:optimizeQuality; fill-rule:evenodd; clip-rule:evenodd" xmlns:xlink="http://www.w3.org/1999/xlink">
<g><path style="opacity:1" fill="#fcfdfd" d="M -0.5,-0.5 C 68.8333,-0.5 138.167,-0.5 207.5,-0.5C 203.726,1.16033 199.726,2.49366 195.5,3.5C 187.706,3.55162 180.373,5.21829 173.5,8.5C 165.716,9.74198 158.383,12.0753 151.5,15.5C 126.951,24.4315 104.951,37.4315 85.5,54.5C 73.8333,62.8333 63.8333,72.8333 55.5,84.5C 54.1667,85.1667 53.1667,86.1667 52.5,87.5C 24.2242,122.097 7.05749,161.764 1,206.5C 0.617425,207.056 0.117425,207.389 -0.5,207.5C -0.5,138.167 -0.5,68.8333 -0.5,-0.5 Z"/></g>
<g><path style="opacity:1" fill="#fcfdfd" d="M 261.5,-0.5 C 332.167,-0.5 402.833,-0.5 473.5,-0.5C 473.5,59.5 473.5,119.5 473.5,179.5C 471.155,184.245 469.489,184.245 468.5,179.5C 468.716,177.616 469.383,175.949 470.5,174.5C 468.958,170.299 466.625,166.633 463.5,163.5C 461.287,156.863 459.287,150.196 457.5,143.5C 456.5,143.5 455.5,143.5 454.5,143.5C 444.35,119.854 430.683,98.5209 413.5,79.5C 404.783,68.7831 394.783,59.4498 383.5,51.5C 383.5,50.8333 383.167,50.5 382.5,50.5C 377.804,46.4788 372.804,42.8122 367.5,39.5C 352.645,29.336 336.645,21.336 319.5,15.5C 309.867,11.0145 299.867,7.68115 289.5,5.5C 288.909,4.84851 288.243,4.18185 287.5,3.5C 280.545,2.33714 273.545,1.67047 266.5,1.5C 264.833,1.5 263.167,1.5 261.5,1.5C 261.5,0.833333 261.5,0.166667 261.5,-0.5 Z"/></g>
<g><path style="opacity:1" fill="#58899e" d="M 207.5,-0.5 C 210.833,-0.5 214.167,-0.5 217.5,-0.5C 216.309,2.87371 213.809,4.54038 210,4.5C 208.203,3.73427 206.369,3.0676 204.5,2.5C 201.532,3.16162 198.532,3.49495 195.5,3.5C 199.726,2.49366 203.726,1.16033 207.5,-0.5 Z"/></g>
<g><path style="opacity:1" fill="#c3e0e5" d="M 266.5,1.5 C 273.545,1.67047 280.545,2.33714 287.5,3.5C 288.243,4.18185 288.909,4.84851 289.5,5.5C 281.664,4.40158 273.997,3.06825 266.5,1.5 Z"/></g>
<g><path style="opacity:1" fill="#3e7f9c" d="M 217.5,-0.5 C 232.167,-0.5 246.833,-0.5 261.5,-0.5C 261.5,0.166667 261.5,0.833333 261.5,1.5C 260.761,1.36899 260.094,1.53566 259.5,2C 272.621,4.13083 285.621,6.7975 298.5,10C 299.167,10.3333 299.833,10.6667 300.5,11C 299.687,12.3139 298.687,13.4805 297.5,14.5C 298.689,15.4287 300.022,15.762 301.5,15.5C 300.972,20.8114 303.306,23.1447 308.5,22.5C 308.5,21.5 308.5,20.5 308.5,19.5C 303.808,19.2801 302.808,17.4467 305.5,14C 310.312,13.3518 314.978,13.8518 319.5,15.5C 319.5,16.5 319.5,17.5 319.5,18.5C 331.175,19.4348 331.842,21.7682 321.5,25.5C 317.795,22.4259 315.128,23.0926 313.5,27.5C 312.808,26.9747 312.308,26.3081 312,25.5C 310.923,27.116 310.423,28.9493 310.5,31C 310.508,32.7067 310.842,34.2067 311.5,35.5C 311.217,36.2891 310.717,36.9558 310,37.5C 309.825,33.789 309.325,30.1224 308.5,26.5C 306.801,25.1854 305.135,25.1854 303.5,26.5C 302.504,26.5858 301.671,26.2524 301,25.5C 299.735,21.9764 298.235,18.6431 296.5,15.5C 295.5,15.5 294.5,15.5 293.5,15.5C 293.67,17.8484 294.003,20.1817 294.5,22.5C 293.469,26.6367 292.135,30.6367 290.5,34.5C 289.5,34.5 288.5,34.5 287.5,34.5C 287.5,32.8333 287.5,31.1667 287.5,29.5C 289.611,28.2305 290.611,26.2305 290.5,23.5C 290.192,20.408 289.192,17.5746 287.5,15C 279.157,14.5421 270.824,14.7088 262.5,15.5C 255.458,13.9036 251.458,16.5703 250.5,23.5C 249.348,22.375 248.348,22.375 247.5,23.5C 246.29,23.0679 245.29,22.4013 244.5,21.5C 244.5,20.5 244.5,19.5 244.5,18.5C 246.252,18.5824 247.252,17.7491 247.5,16C 244.272,12.6956 240.939,12.6956 237.5,16C 235.393,21.6026 237.393,24.4359 243.5,24.5C 243.5,25.5 243.5,26.5 243.5,27.5C 241.738,27.6427 240.071,27.3094 238.5,26.5C 236.889,27.3202 236.222,28.6536 236.5,30.5C 234.621,31.3414 232.621,31.6747 230.5,31.5C 228.823,26.472 230.823,23.8053 236.5,23.5C 235.033,23.277 233.533,22.9437 232,22.5C 229.934,25.2981 228.434,24.9648 227.5,21.5C 228.381,20.0295 229.714,19.1962 231.5,19C 230.167,18.3333 228.833,18.3333 227.5,19C 226.167,21.3333 226.167,23.6667 227.5,26C 226.207,26.49 224.873,26.6567 223.5,26.5C 224.044,22.3601 223.044,21.6935 220.5,24.5C 220.81,21.2869 220.477,18.2869 219.5,15.5C 218.432,14.5655 217.099,14.2322 215.5,14.5C 216.113,18.5123 214.446,20.5123 210.5,20.5C 210.229,18.1789 210.896,16.1789 212.5,14.5C 211.667,14.1667 210.833,13.8333 210,13.5C 206.993,14.979 203.826,15.6457 200.5,15.5C 199.062,29.9981 197.062,29.9981 194.5,15.5C 193.5,15.5 192.5,15.5 191.5,15.5C 188.258,13.561 184.924,11.7277 181.5,10C 178.793,9.60487 176.127,9.10487 173.5,8.5C 180.373,5.21829 187.706,3.55162 195.5,3.5C 198.532,3.49495 201.532,3.16162 204.5,2.5C 206.369,3.0676 208.203,3.73427 210,4.5C 213.809,4.54038 216.309,2.87371 217.5,-0.5 Z"/></g>
<g><path style="opacity:1" fill="#447e93" d="M 261.5,1.5 C 263.167,1.5 264.833,1.5 266.5,1.5C 273.997,3.06825 281.664,4.40158 289.5,5.5C 299.867,7.68115 309.867,11.0145 319.5,15.5C 314.978,13.8518 310.312,13.3518 305.5,14C 302.808,17.4467 303.808,19.2801 308.5,19.5C 308.5,20.5 308.5,21.5 308.5,22.5C 303.306,23.1447 300.972,20.8114 301.5,15.5C 300.022,15.762 298.689,15.4287 297.5,14.5C 298.687,13.4805 299.687,12.3139 300.5,11C 299.833,10.6667 299.167,10.3333 298.5,10C 285.621,6.7975 272.621,4.13083 259.5,2C 260.094,1.53566 260.761,1.36899 261.5,1.5 Z"/></g>
<g><path style="opacity:1" fill="#3f7da1" d="M 173.5,8.5 C 176.127,9.10487 178.793,9.60487 181.5,10C 184.924,11.7277 188.258,13.561 191.5,15.5C 191.5,16.5 191.5,17.5 191.5,18.5C 191.167,18.5 190.833,18.5 190.5,18.5C 188.088,18.6941 187.088,20.0274 187.5,22.5C 186.5,22.5 185.5,22.5 184.5,22.5C 182.958,21.6993 181.292,21.366 179.5,21.5C 181.159,20.1658 182.492,18.4992 183.5,16.5C 181.955,15.5481 180.288,15.2148 178.5,15.5C 178.5,16.5 178.5,17.5 178.5,18.5C 176.202,17.6897 173.868,16.8564 171.5,16C 176.833,15 176.833,14 171.5,13C 170.663,11.9887 170.33,10.8221 170.5,9.5C 171.791,9.73731 172.791,9.40397 173.5,8.5 Z"/></g>
<g><path style="opacity:1" fill="#477e95" d="M 173.5,8.5 C 172.791,9.40397 171.791,9.73731 170.5,9.5C 170.33,10.8221 170.663,11.9887 171.5,13C 176.833,14 176.833,15 171.5,16C 173.868,16.8564 176.202,17.6897 178.5,18.5C 178.5,17.5 178.5,16.5 178.5,15.5C 180.288,15.2148 181.955,15.5481 183.5,16.5C 182.492,18.4992 181.159,20.1658 179.5,21.5C 177.821,21.2852 176.821,21.9519 176.5,23.5C 173.665,21.9216 170.665,20.5882 167.5,19.5C 163.375,21.7264 159.042,22.393 154.5,21.5C 153.289,20.7261 153.289,19.8928 154.5,19C 158.677,18.4206 162.677,17.4206 166.5,16C 165.672,15.0853 164.672,14.4186 163.5,14C 159.615,14.7949 155.615,15.2949 151.5,15.5C 158.383,12.0753 165.716,9.74198 173.5,8.5 Z"/></g>
<g><path style="opacity:1" fill="#add4dc" d="M 263.5,16.5 C 265.465,16.9483 265.798,17.9483 264.5,19.5C 261.515,19.4535 258.515,19.7869 255.5,20.5C 258.072,19.0715 260.739,17.7382 263.5,16.5 Z"/></g>
<g><path style="opacity:1" fill="#6d8189" d="M 244.5,18.5 C 244.5,19.5 244.5,20.5 244.5,21.5C 241.821,21.4754 240.488,20.142 240.5,17.5C 242.099,17.2322 243.432,17.5655 244.5,18.5 Z"/></g>
<g><path style="opacity:1" fill="#dff3f6" d="M 244.5,18.5 C 243.432,17.5655 242.099,17.2322 240.5,17.5C 240.488,20.142 241.821,21.4754 244.5,21.5C 245.29,22.4013 246.29,23.0679 247.5,23.5C 248.171,26.986 247.171,29.6527 244.5,31.5C 242.167,31.5 239.833,31.5 237.5,31.5C 237.5,30.8333 237.167,30.5 236.5,30.5C 236.222,28.6536 236.889,27.3202 238.5,26.5C 240.071,27.3094 241.738,27.6427 243.5,27.5C 243.5,26.5 243.5,25.5 243.5,24.5C 237.393,24.4359 235.393,21.6026 237.5,16C 240.939,12.6956 244.272,12.6956 247.5,16C 247.252,17.7491 246.252,18.5824 244.5,18.5 Z"/></g>
<g><path style="opacity:1" fill="#488095" d="M 287.5,29.5 C 288.159,26.5448 288.492,23.5448 288.5,20.5C 287.5,20.5 286.5,20.5 285.5,20.5C 284.016,25.0327 283.35,29.6993 283.5,34.5C 282.528,32.5069 281.195,32.1736 279.5,33.5C 278.841,31.8621 278.174,30.1955 277.5,28.5C 283.681,22.242 282.348,18.5753 273.5,17.5C 271.68,17.6493 270.18,18.3159 269,19.5C 267.627,24.0724 266.794,28.739 266.5,33.5C 267.833,33.5 269.167,33.5 270.5,33.5C 270.051,31.0225 270.717,29.0225 272.5,27.5C 273.461,31.4553 275.794,34.122 279.5,35.5C 277.898,39.4497 275.231,40.4497 271.5,38.5C 271.5,37.5 271.5,36.5 271.5,35.5C 266.974,34.6232 262.474,34.6232 258,35.5C 255.714,33.2272 252.881,32.0605 249.5,32C 250.696,31.3457 250.696,30.8457 249.5,30.5C 247.929,31.3094 246.262,31.6427 244.5,31.5C 247.171,29.6527 248.171,26.986 247.5,23.5C 248.348,22.375 249.348,22.375 250.5,23.5C 251.312,31.2601 255.646,34.0934 263.5,32C 264.727,30.4126 264.394,29.0793 262.5,28C 255.858,29.5244 253.524,27.0244 255.5,20.5C 258.515,19.7869 261.515,19.4535 264.5,19.5C 265.798,17.9483 265.465,16.9483 263.5,16.5C 262.833,16.5 262.5,16.1667 262.5,15.5C 270.824,14.7088 279.157,14.5421 287.5,15C 289.192,17.5746 290.192,20.408 290.5,23.5C 290.611,26.2305 289.611,28.2305 287.5,29.5 Z"/></g>
<g><path style="opacity:1" fill="#dff5f6" d="M 262.5,15.5 C 262.5,16.1667 262.833,16.5 263.5,16.5C 260.739,17.7382 258.072,19.0715 255.5,20.5C 253.524,27.0244 255.858,29.5244 262.5,28C 264.394,29.0793 264.727,30.4126 263.5,32C 255.646,34.0934 251.312,31.2601 250.5,23.5C 251.458,16.5703 255.458,13.9036 262.5,15.5 Z"/></g>
<g><path style="opacity:1" fill="#e6f3f4" d="M 190.5,18.5 C 190.833,18.5 191.167,18.5 191.5,18.5C 194.807,23.7559 195.807,29.4226 194.5,35.5C 193.167,35.5 191.833,35.5 190.5,35.5C 188.205,32.7029 185.705,30.0362 183,27.5C 183.201,30.7772 183.368,34.1105 183.5,37.5C 182.5,37.5 181.5,37.5 180.5,37.5C 179.512,33.5158 178.512,29.5158 177.5,25.5C 177.167,24.8333 176.833,24.1667 176.5,23.5C 176.821,21.9519 177.821,21.2852 179.5,21.5C 181.292,21.366 182.958,21.6993 184.5,22.5C 186.127,24.6298 187.96,26.6298 190,28.5C 189.793,25.0823 189.959,21.7489 190.5,18.5 Z"/></g>
<g><path style="opacity:1" fill="#547f8d" d="M 190.5,18.5 C 189.959,21.7489 189.793,25.0823 190,28.5C 187.96,26.6298 186.127,24.6298 184.5,22.5C 185.5,22.5 186.5,22.5 187.5,22.5C 187.088,20.0274 188.088,18.6941 190.5,18.5 Z"/></g>
<g><path style="opacity:1" fill="#538796" d="M 219.5,15.5 C 218.5,15.5 217.5,15.5 216.5,15.5C 216.324,20.8797 216.658,26.213 217.5,31.5C 220.833,31.5 224.167,31.5 227.5,31.5C 227.5,30.5 227.5,29.5 227.5,28.5C 225.167,28.5 222.833,28.5 220.5,28.5C 220.5,27.1667 220.5,25.8333 220.5,24.5C 223.044,21.6935 224.044,22.3601 223.5,26.5C 224.873,26.6567 226.207,26.49 227.5,26C 226.167,23.6667 226.167,21.3333 227.5,19C 228.833,18.3333 230.167,18.3333 231.5,19C 229.714,19.1962 228.381,20.0295 227.5,21.5C 228.434,24.9648 229.934,25.2981 232,22.5C 233.533,22.9437 235.033,23.277 236.5,23.5C 230.823,23.8053 228.823,26.472 230.5,31.5C 232.621,31.6747 234.621,31.3414 236.5,30.5C 237.167,30.5 237.5,30.8333 237.5,31.5C 230.117,33.5236 222.784,33.1903 215.5,30.5C 212.179,26.5347 209.345,22.2014 207,17.5C 205.644,16.6198 204.144,16.2865 202.5,16.5C 200.998,22.4948 199.831,28.4948 199,34.5C 200.697,33.6364 201.863,32.3031 202.5,30.5C 203.833,30.1667 205.167,29.8333 206.5,29.5C 208.333,29.5854 209.666,30.2521 210.5,31.5C 208.194,31.0074 205.861,30.6741 203.5,30.5C 203.67,31.8221 203.337,32.9887 202.5,34C 199.986,35.2525 197.32,35.7525 194.5,35.5C 195.807,29.4226 194.807,23.7559 191.5,18.5C 191.5,17.5 191.5,16.5 191.5,15.5C 192.5,15.5 193.5,15.5 194.5,15.5C 197.062,29.9981 199.062,29.9981 200.5,15.5C 203.826,15.6457 206.993,14.979 210,13.5C 210.833,13.8333 211.667,14.1667 212.5,14.5C 210.896,16.1789 210.229,18.1789 210.5,20.5C 214.446,20.5123 216.113,18.5123 215.5,14.5C 217.099,14.2322 218.432,14.5655 219.5,15.5 Z"/></g>
<g><path style="opacity:1" fill="#ebf2f9" d="M 219.5,15.5 C 220.477,18.2869 220.81,21.2869 220.5,24.5C 220.5,25.8333 220.5,27.1667 220.5,28.5C 222.833,28.5 225.167,28.5 227.5,28.5C 227.5,29.5 227.5,30.5 227.5,31.5C 224.167,31.5 220.833,31.5 217.5,31.5C 216.658,26.213 216.324,20.8797 216.5,15.5C 217.5,15.5 218.5,15.5 219.5,15.5 Z"/></g>
<g><path style="opacity:1" fill="#e6f5f9" d="M 279.5,33.5 C 279.5,34.1667 279.5,34.8333 279.5,35.5C 275.794,34.122 273.461,31.4553 272.5,27.5C 270.717,29.0225 270.051,31.0225 270.5,33.5C 269.167,33.5 267.833,33.5 266.5,33.5C 266.794,28.739 267.627,24.0724 269,19.5C 270.18,18.3159 271.68,17.6493 273.5,17.5C 282.348,18.5753 283.681,22.242 277.5,28.5C 278.174,30.1955 278.841,31.8621 279.5,33.5 Z"/></g>
<g><path style="opacity:1" fill="#658685" d="M 272.5,20.5 C 274.117,21.038 275.784,21.3713 277.5,21.5C 277.5,22.5 277.5,23.5 277.5,24.5C 275.833,24.5 274.167,24.5 272.5,24.5C 272.5,23.1667 272.5,21.8333 272.5,20.5 Z"/></g>
<g><path style="opacity:1" fill="#458493" d="M 303.5,26.5 C 302.679,30.1267 301.346,33.46 299.5,36.5C 298.194,35.5326 297.527,34.1993 297.5,32.5C 298.038,29.8111 298.705,27.1444 299.5,24.5C 298.68,22.8888 297.346,22.2222 295.5,22.5C 295.186,25.9466 294.352,29.2799 293,32.5C 292.583,33.756 291.75,34.4226 290.5,34.5C 292.135,30.6367 293.469,26.6367 294.5,22.5C 294.003,20.1817 293.67,17.8484 293.5,15.5C 294.5,15.5 295.5,15.5 296.5,15.5C 298.235,18.6431 299.735,21.9764 301,25.5C 301.671,26.2524 302.504,26.5858 303.5,26.5 Z"/></g>
<g><path style="opacity:1" fill="#e6f1f7" d="M 215.5,30.5 C 215.209,31.6491 214.376,32.3158 213,32.5C 211.93,32.472 211.097,32.1386 210.5,31.5C 209.666,30.2521 208.333,29.5854 206.5,29.5C 205.167,29.8333 203.833,30.1667 202.5,30.5C 201.863,32.3031 200.697,33.6364 199,34.5C 199.831,28.4948 200.998,22.4948 202.5,16.5C 204.144,16.2865 205.644,16.6198 207,17.5C 209.345,22.2014 212.179,26.5347 215.5,30.5 Z"/></g>
<g><path style="opacity:1" fill="#727175" d="M 204.5,22.5 C 206.476,23.4271 206.809,24.7605 205.5,26.5C 204.571,25.3112 204.238,23.9778 204.5,22.5 Z"/></g>
<g><path style="opacity:1" fill="#458096" d="M 319.5,15.5 C 336.645,21.336 352.645,29.336 367.5,39.5C 366.067,40.8333 364.733,42.3333 363.5,44C 357.661,44.1864 355.661,47.0197 357.5,52.5C 352.518,55.1386 348.184,58.472 344.5,62.5C 343.584,62.9817 342.584,63.315 341.5,63.5C 339.048,61.6071 336.381,60.2737 333.5,59.5C 333.5,60.8333 333.5,62.1667 333.5,63.5C 331.62,63.7709 330.287,63.1042 329.5,61.5C 329.938,61.5654 330.272,61.3988 330.5,61C 330.004,57.9143 329.004,55.0809 327.5,52.5C 326.265,52.2786 325.265,51.6119 324.5,50.5C 323.914,50.7093 323.414,51.0426 323,51.5C 323.366,46.7954 323.199,42.1287 322.5,37.5C 323.098,36.2054 323.598,34.8721 324,33.5C 325.033,36.0327 326.867,37.6994 329.5,38.5C 331.46,35.3457 334.126,34.179 337.5,35C 337.167,34.6667 336.833,34.3333 336.5,34C 337.308,33.6924 337.975,33.1924 338.5,32.5C 337.5,31.8333 336.5,31.1667 335.5,30.5C 336.651,29.269 337.817,29.269 339,30.5C 342.848,25.9902 341.682,23.9902 335.5,24.5C 335.5,25.8333 335.5,27.1667 335.5,28.5C 332.383,28.8723 329.383,28.8723 326.5,28.5C 324.517,28.8148 323.184,29.8148 322.5,31.5C 320.742,31.1231 319.075,30.4565 317.5,29.5C 315.118,31.215 313.118,33.215 311.5,35.5C 310.842,34.2067 310.508,32.7067 310.5,31C 310.423,28.9493 310.923,27.116 312,25.5C 312.308,26.3081 312.808,26.9747 313.5,27.5C 315.128,23.0926 317.795,22.4259 321.5,25.5C 331.842,21.7682 331.175,19.4348 319.5,18.5C 319.5,17.5 319.5,16.5 319.5,15.5 Z"/></g>
<g><path style="opacity:1" fill="#eaf1f4" d="M 287.5,29.5 C 287.5,31.1667 287.5,32.8333 287.5,34.5C 288.5,34.5 289.5,34.5 290.5,34.5C 291.75,34.4226 292.583,33.756 293,32.5C 294.352,29.2799 295.186,25.9466 295.5,22.5C 297.346,22.2222 298.68,22.8888 299.5,24.5C 298.705,27.1444 298.038,29.8111 297.5,32.5C 295.812,37.9815 292.145,39.8149 286.5,38C 285.29,36.9609 284.29,35.7942 283.5,34.5C 283.35,29.6993 284.016,25.0327 285.5,20.5C 286.5,20.5 287.5,20.5 288.5,20.5C 288.492,23.5448 288.159,26.5448 287.5,29.5 Z"/></g>
<g><path style="opacity:1" fill="#407ca4" d="M 342.5,34.5 C 347.041,33.7692 351.041,34.7692 354.5,37.5C 353.948,39.3334 353.115,41.0001 352,42.5C 351.517,41.552 351.351,40.552 351.5,39.5C 347.719,38.7886 344.719,39.9553 342.5,43C 341.552,43.4828 340.552,43.6495 339.5,43.5C 339.129,39.9966 340.129,36.9966 342.5,34.5 Z"/></g>
<g><path style="opacity:1" fill="#8ab0c1" d="M 329.5,61.5 C 330.287,63.1042 331.62,63.7709 333.5,63.5C 370.277,84.9413 397.61,114.941 415.5,153.5C 427.801,179.649 434.134,207.316 434.5,236.5C 432.797,288.845 414.63,334.178 380,372.5C 340.696,413.221 292.529,433.888 235.5,434.5C 167.882,433.064 113.715,405.397 73,351.5C 41.5224,303.786 30.8557,251.453 41,194.5C 53.3116,141.512 82.1449,100.178 127.5,70.5C 165.681,45.6213 207.681,35.1213 253.5,39C 280.194,42.1785 305.527,49.6785 329.5,61.5 Z"/></g>
<g><path style="opacity:1" fill="#427f97" d="M 367.5,39.5 C 372.804,42.8122 377.804,46.4788 382.5,50.5C 379.112,52.054 375.945,51.7206 373,49.5C 370.843,50.385 370.01,52.0516 370.5,54.5C 369.5,54.5 368.5,54.5 367.5,54.5C 367.5,49.5 367.5,44.5 367.5,39.5 Z"/></g>
<g><path style="opacity:1" fill="#e7f2f6" d="M 327.5,52.5 C 327.196,51.8501 326.863,51.1835 326.5,50.5C 328.676,45.4722 331.343,40.8056 334.5,36.5C 335.748,37.0402 336.915,37.7069 338,38.5C 337.923,42.2292 338.09,45.8959 338.5,49.5C 341.419,44.8496 345.419,43.1829 350.5,44.5C 348.393,50.0479 345.726,55.3813 342.5,60.5C 341.328,60.0814 340.328,59.4147 339.5,58.5C 341.869,55.439 343.369,52.1057 344,48.5C 341.286,51.5511 338.286,54.2178 335,56.5C 333.5,56.3333 332.667,55.5 332.5,54C 333.578,51.2048 334.078,48.3715 334,45.5C 332.581,47.3359 331.414,49.3359 330.5,51.5C 329.675,52.3857 328.675,52.719 327.5,52.5 Z"/></g>
<g><path style="opacity:1" fill="#417e9c" d="M 176.5,23.5 C 176.833,24.1667 177.167,24.8333 177.5,25.5C 176.778,25.9175 176.278,26.5842 176,27.5C 175.184,26.1772 174.017,25.5106 172.5,25.5C 169.167,25.5 165.833,25.5 162.5,25.5C 161.504,25.4142 160.671,25.7476 160,26.5C 159.517,25.552 159.351,24.552 159.5,23.5C 155.719,22.7886 152.719,23.9553 150.5,27C 150.833,27.3333 151.167,27.6667 151.5,28C 148.129,28.1736 147.129,29.6736 148.5,32.5C 148.145,33.5223 147.478,34.189 146.5,34.5C 145.791,33.596 144.791,33.2627 143.5,33.5C 136.695,33.8151 130.029,33.1485 123.5,31.5C 123.45,33.5901 124.45,34.9234 126.5,35.5C 127.466,37.396 127.799,39.396 127.5,41.5C 125.016,43.5452 124.016,46.2118 124.5,49.5C 123.167,49.1667 121.833,48.8333 120.5,48.5C 120.158,47.6618 119.492,47.3284 118.5,47.5C 116.173,47.7529 114.173,47.0863 112.5,45.5C 111.5,48 110.5,50.5 109.5,53C 109.528,54.0698 109.861,54.9032 110.5,55.5C 113.353,59.2077 115.686,63.2077 117.5,67.5C 120.607,66.4473 123.607,65.114 126.5,63.5C 130.266,62.3087 133.933,60.8087 137.5,59C 136.906,58.5357 136.239,58.369 135.5,58.5C 136.5,56.8333 137.833,55.5 139.5,54.5C 145.554,55.1726 150.888,52.8393 155.5,47.5C 157.484,47.516 158.484,46.516 158.5,44.5C 157.063,42.4229 156.396,40.0895 156.5,37.5C 157.167,37.5 157.833,37.5 158.5,37.5C 162.983,44.6385 168.483,45.3052 175,39.5C 175.813,37.5643 176.313,35.5643 176.5,33.5C 177.451,34.9187 177.784,36.5853 177.5,38.5C 179.833,38.5 182.167,38.5 184.5,38.5C 184.5,37.1667 184.5,35.8333 184.5,34.5C 187.315,34.8919 189.815,35.8919 192,37.5C 192.833,37.3333 193.667,37.1667 194.5,37C 192.942,36.79 191.609,36.29 190.5,35.5C 191.833,35.5 193.167,35.5 194.5,35.5C 197.32,35.7525 199.986,35.2525 202.5,34C 203.337,32.9887 203.67,31.8221 203.5,30.5C 205.861,30.6741 208.194,31.0074 210.5,31.5C 211.097,32.1386 211.93,32.472 213,32.5C 214.376,32.3158 215.209,31.6491 215.5,30.5C 222.784,33.1903 230.117,33.5236 237.5,31.5C 239.833,31.5 242.167,31.5 244.5,31.5C 246.262,31.6427 247.929,31.3094 249.5,30.5C 250.696,30.8457 250.696,31.3457 249.5,32C 252.881,32.0605 255.714,33.2272 258,35.5C 262.474,34.6232 266.974,34.6232 271.5,35.5C 271.5,36.5 271.5,37.5 271.5,38.5C 275.231,40.4497 277.898,39.4497 279.5,35.5C 279.5,34.8333 279.5,34.1667 279.5,33.5C 281.195,32.1736 282.528,32.5069 283.5,34.5C 284.29,35.7942 285.29,36.9609 286.5,38C 292.145,39.8149 295.812,37.9815 297.5,32.5C 297.527,34.1993 298.194,35.5326 299.5,36.5C 299.116,38.6648 299.783,40.3315 301.5,41.5C 303.283,38.3268 304.783,34.9935 306,31.5C 304.763,46.8943 308.096,48.2277 316,35.5C 315.045,38.9991 314.212,42.6658 313.5,46.5C 314.822,46.67 315.989,46.3366 317,45.5C 318.566,40.7058 320.399,36.0392 322.5,31.5C 323.184,29.8148 324.517,28.8148 326.5,28.5C 329.383,28.8723 332.383,28.8723 335.5,28.5C 335.5,27.1667 335.5,25.8333 335.5,24.5C 341.682,23.9902 342.848,25.9902 339,30.5C 337.817,29.269 336.651,29.269 335.5,30.5C 336.5,31.1667 337.5,31.8333 338.5,32.5C 337.975,33.1924 337.308,33.6924 336.5,34C 336.833,34.3333 337.167,34.6667 337.5,35C 334.126,34.179 331.46,35.3457 329.5,38.5C 326.867,37.6994 325.033,36.0327 324,33.5C 323.598,34.8721 323.098,36.2054 322.5,37.5C 323.199,42.1287 323.366,46.7954 323,51.5C 323.414,51.0426 323.914,50.7093 324.5,50.5C 325.265,51.6119 326.265,52.2786 327.5,52.5C 329.004,55.0809 330.004,57.9143 330.5,61C 330.272,61.3988 329.938,61.5654 329.5,61.5C 305.527,49.6785 280.194,42.1785 253.5,39C 207.681,35.1213 165.681,45.6213 127.5,70.5C 127.265,69.9033 126.765,69.5699 126,69.5C 123.57,70.7858 121.07,71.7858 118.5,72.5C 117.006,72.2908 115.839,71.6241 115,70.5C 113.853,71.4581 112.853,71.1247 112,69.5C 111.51,68.2068 111.343,66.8734 111.5,65.5C 111.5,64.5 111.5,63.5 111.5,62.5C 108.833,63.5 106.167,64.5 103.5,65.5C 103.351,64.448 103.517,63.448 104,62.5C 105.635,61.2744 107.135,59.941 108.5,58.5C 108.291,57.914 107.957,57.414 107.5,57C 104.229,57.7263 101.229,59.2263 98.5,61.5C 97.8826,61.6107 97.3826,61.944 97,62.5C 94.1755,60.8122 91.0088,59.9789 87.5,60C 86.5,59.1667 85.5,58.3333 84.5,57.5C 85.1272,56.5832 85.4606,55.5832 85.5,54.5C 104.951,37.4315 126.951,24.4315 151.5,15.5C 155.615,15.2949 159.615,14.7949 163.5,14C 164.672,14.4186 165.672,15.0853 166.5,16C 162.677,17.4206 158.677,18.4206 154.5,19C 153.289,19.8928 153.289,20.7261 154.5,21.5C 159.042,22.393 163.375,21.7264 167.5,19.5C 170.665,20.5882 173.665,21.9216 176.5,23.5 Z"/></g>
<g><path style="opacity:1" fill="#deeef1" d="M 129.5,40.5 C 130.833,40.5 132.167,40.5 133.5,40.5C 133.5,41.8333 133.5,43.1667 133.5,44.5C 131.335,44.1159 129.668,44.7826 128.5,46.5C 131.972,47.1347 135.305,48.1347 138.5,49.5C 139.309,51.0709 139.643,52.7376 139.5,54.5C 137.833,55.5 136.5,56.8333 135.5,58.5C 133.621,59.3414 131.621,59.6747 129.5,59.5C 129.5,57.8333 129.5,56.1667 129.5,54.5C 131.5,54.5 133.5,54.5 135.5,54.5C 135.5,53.5 135.5,52.5 135.5,51.5C 132.15,51.665 128.817,51.4983 125.5,51C 124.944,50.6174 124.611,50.1174 124.5,49.5C 124.016,46.2118 125.016,43.5452 127.5,41.5C 128.492,41.6716 129.158,41.3382 129.5,40.5 Z"/></g>
<g><path style="opacity:1" fill="#4b7f96" d="M 162.5,25.5 C 158.922,28.6329 157.589,32.6329 158.5,37.5C 157.833,37.5 157.167,37.5 156.5,37.5C 155.229,35.8914 154.229,34.0581 153.5,32C 152.207,31.51 150.873,31.3433 149.5,31.5C 151.3,36.899 153.3,42.2324 155.5,47.5C 150.888,52.8393 145.554,55.1726 139.5,54.5C 139.643,52.7376 139.309,51.0709 138.5,49.5C 135.305,48.1347 131.972,47.1347 128.5,46.5C 129.668,44.7826 131.335,44.1159 133.5,44.5C 135.167,44.5 136.833,44.5 138.5,44.5C 141.358,45.166 144.358,45.8326 147.5,46.5C 145.977,48.2825 143.977,48.9492 141.5,48.5C 141.5,49.8333 141.5,51.1667 141.5,52.5C 146.766,53.0477 150.099,50.881 151.5,46C 151.561,44.2894 150.894,42.956 149.5,42C 146.854,41.5026 144.187,41.3359 141.5,41.5C 141.5,40.5 141.5,39.5 141.5,38.5C 144.546,38.8174 146.213,37.4841 146.5,34.5C 147.478,34.189 148.145,33.5223 148.5,32.5C 147.129,29.6736 148.129,28.1736 151.5,28C 151.167,27.6667 150.833,27.3333 150.5,27C 152.719,23.9553 155.719,22.7886 159.5,23.5C 159.351,24.552 159.517,25.552 160,26.5C 160.671,25.7476 161.504,25.4142 162.5,25.5 Z"/></g>
<g><path style="opacity:1" fill="#528890" d="M 118.5,47.5 C 116.813,49.1662 114.813,50.4995 112.5,51.5C 111.295,52.5769 110.628,53.9102 110.5,55.5C 109.861,54.9032 109.528,54.0698 109.5,53C 110.5,50.5 111.5,48 112.5,45.5C 114.173,47.0863 116.173,47.7529 118.5,47.5 Z"/></g>
<g><path style="opacity:1" fill="#e4eff2" d="M 143.5,33.5 C 144.791,33.2627 145.791,33.596 146.5,34.5C 146.213,37.4841 144.546,38.8174 141.5,38.5C 141.5,39.5 141.5,40.5 141.5,41.5C 144.187,41.3359 146.854,41.5026 149.5,42C 150.894,42.956 151.561,44.2894 151.5,46C 150.099,50.881 146.766,53.0477 141.5,52.5C 141.5,51.1667 141.5,49.8333 141.5,48.5C 143.977,48.9492 145.977,48.2825 147.5,46.5C 144.358,45.8326 141.358,45.166 138.5,44.5C 136.14,38.9309 137.806,35.2642 143.5,33.5 Z"/></g>
<g><path style="opacity:1" fill="#eaf1f1" d="M 156.5,37.5 C 156.396,40.0895 157.063,42.4229 158.5,44.5C 158.484,46.516 157.484,47.516 155.5,47.5C 153.3,42.2324 151.3,36.899 149.5,31.5C 150.873,31.3433 152.207,31.51 153.5,32C 154.229,34.0581 155.229,35.8914 156.5,37.5 Z"/></g>
<g><path style="opacity:1" fill="#e6f5f7" d="M 311.5,35.5 C 313.118,33.215 315.118,31.215 317.5,29.5C 319.075,30.4565 320.742,31.1231 322.5,31.5C 320.399,36.0392 318.566,40.7058 317,45.5C 315.989,46.3366 314.822,46.67 313.5,46.5C 314.212,42.6658 315.045,38.9991 316,35.5C 308.096,48.2277 304.763,46.8943 306,31.5C 304.783,34.9935 303.283,38.3268 301.5,41.5C 299.783,40.3315 299.116,38.6648 299.5,36.5C 301.346,33.46 302.679,30.1267 303.5,26.5C 305.135,25.1854 306.801,25.1854 308.5,26.5C 309.325,30.1224 309.825,33.789 310,37.5C 310.717,36.9558 311.217,36.2891 311.5,35.5 Z"/></g>
<g><path style="opacity:1" fill="#5e8297" d="M 172.5,25.5 C 174.017,25.5106 175.184,26.1772 176,27.5C 176.278,26.5842 176.778,25.9175 177.5,25.5C 178.512,29.5158 179.512,33.5158 180.5,37.5C 181.5,37.5 182.5,37.5 183.5,37.5C 183.368,34.1105 183.201,30.7772 183,27.5C 185.705,30.0362 188.205,32.7029 190.5,35.5C 191.609,36.29 192.942,36.79 194.5,37C 193.667,37.1667 192.833,37.3333 192,37.5C 189.815,35.8919 187.315,34.8919 184.5,34.5C 184.5,35.8333 184.5,37.1667 184.5,38.5C 182.167,38.5 179.833,38.5 177.5,38.5C 177.784,36.5853 177.451,34.9187 176.5,33.5C 176.112,30.3188 174.778,27.6522 172.5,25.5 Z"/></g>
<g><path style="opacity:1" fill="#3f848f" d="M 143.5,33.5 C 137.806,35.2642 136.14,38.9309 138.5,44.5C 136.833,44.5 135.167,44.5 133.5,44.5C 133.5,43.1667 133.5,41.8333 133.5,40.5C 133.5,39.5 133.5,38.5 133.5,37.5C 132.167,37.5 130.833,37.5 129.5,37.5C 129.5,38.5 129.5,39.5 129.5,40.5C 129.158,41.3382 128.492,41.6716 127.5,41.5C 127.799,39.396 127.466,37.396 126.5,35.5C 124.45,34.9234 123.45,33.5901 123.5,31.5C 130.029,33.1485 136.695,33.8151 143.5,33.5 Z"/></g>
<g><path style="opacity:1" fill="#5670a3" d="M 133.5,40.5 C 132.167,40.5 130.833,40.5 129.5,40.5C 129.5,39.5 129.5,38.5 129.5,37.5C 130.833,37.5 132.167,37.5 133.5,37.5C 133.5,38.5 133.5,39.5 133.5,40.5 Z"/></g>
<g><path style="opacity:1" fill="#e6f1f1" d="M 162.5,25.5 C 165.833,25.5 169.167,25.5 172.5,25.5C 174.778,27.6522 176.112,30.3188 176.5,33.5C 176.313,35.5643 175.813,37.5643 175,39.5C 168.483,45.3052 162.983,44.6385 158.5,37.5C 157.589,32.6329 158.922,28.6329 162.5,25.5 Z"/></g>
<g><path style="opacity:1" fill="#497e97" d="M 164.5,29.5 C 171.997,28.8038 173.997,31.6372 170.5,38C 164.086,40.5925 161.586,38.4259 163,31.5C 163.717,30.9558 164.217,30.2891 164.5,29.5 Z"/></g>
<g><path style="opacity:1" fill="#4e818e" d="M 120.5,48.5 C 121.833,48.8333 123.167,49.1667 124.5,49.5C 124.611,50.1174 124.944,50.6174 125.5,51C 128.817,51.4983 132.15,51.665 135.5,51.5C 135.5,52.5 135.5,53.5 135.5,54.5C 133.5,54.5 131.5,54.5 129.5,54.5C 129.5,56.1667 129.5,57.8333 129.5,59.5C 131.621,59.6747 133.621,59.3414 135.5,58.5C 136.239,58.369 136.906,58.5357 137.5,59C 133.933,60.8087 130.266,62.3087 126.5,63.5C 128.93,61.704 128.93,60.0374 126.5,58.5C 124.5,59.8333 122.5,61.1667 120.5,62.5C 119.5,62.1667 118.833,61.5 118.5,60.5C 120.193,58.9733 122.027,57.6399 124,56.5C 124.301,53.9085 123.134,53.0752 120.5,54C 118.788,56.6923 116.788,57.0256 114.5,55C 117.409,53.5945 119.409,51.4278 120.5,48.5 Z"/></g>
<g><path style="opacity:1" fill="#40879a" d="M 365.5,63.5 C 363.833,63.5 362.167,63.5 360.5,63.5C 360.768,65.099 360.434,66.4324 359.5,67.5C 359.906,63.1364 360.572,58.8031 361.5,54.5C 361.48,53.2739 361.147,52.2739 360.5,51.5C 361.234,50.2921 361.567,48.9587 361.5,47.5C 362.5,47.5 363.5,47.5 364.5,47.5C 365.275,52.7968 365.608,58.1301 365.5,63.5 Z"/></g>
<g><path style="opacity:1" fill="#3f7ca0" d="M 367.5,39.5 C 367.5,44.5 367.5,49.5 367.5,54.5C 368.5,54.5 369.5,54.5 370.5,54.5C 370.01,52.0516 370.843,50.385 373,49.5C 375.945,51.7206 379.112,52.054 382.5,50.5C 383.167,50.5 383.5,50.8333 383.5,51.5C 383.557,52.609 383.89,53.609 384.5,54.5C 385.087,55.7666 385.087,56.7666 384.5,57.5C 381.897,56.4383 379.23,56.2716 376.5,57C 373.46,58.6534 370.46,60.1534 367.5,61.5C 367.167,62.5 366.5,63.1667 365.5,63.5C 365.608,58.1301 365.275,52.7968 364.5,47.5C 363.5,47.5 362.5,47.5 361.5,47.5C 361.567,48.9587 361.234,50.2921 360.5,51.5C 359.391,51.5569 358.391,51.8902 357.5,52.5C 355.661,47.0197 357.661,44.1864 363.5,44C 364.733,42.3333 366.067,40.8333 367.5,39.5 Z"/></g>
<g><path style="opacity:1" fill="#e5f3f4" d="M 360.5,51.5 C 361.147,52.2739 361.48,53.2739 361.5,54.5C 360.572,58.8031 359.906,63.1364 359.5,67.5C 359.585,68.9953 358.919,69.9953 357.5,70.5C 356.188,67.8407 354.521,65.3407 352.5,63C 349.743,63.2227 347.076,63.0561 344.5,62.5C 348.184,58.472 352.518,55.1386 357.5,52.5C 358.391,51.8902 359.391,51.5569 360.5,51.5 Z"/></g>
<g><path style="opacity:1" fill="#e6f4f8" d="M 118.5,47.5 C 119.492,47.3284 120.158,47.6618 120.5,48.5C 119.409,51.4278 117.409,53.5945 114.5,55C 116.788,57.0256 118.788,56.6923 120.5,54C 123.134,53.0752 124.301,53.9085 124,56.5C 122.027,57.6399 120.193,58.9733 118.5,60.5C 118.833,61.5 119.5,62.1667 120.5,62.5C 122.5,61.1667 124.5,59.8333 126.5,58.5C 128.93,60.0374 128.93,61.704 126.5,63.5C 123.607,65.114 120.607,66.4473 117.5,67.5C 115.686,63.2077 113.353,59.2077 110.5,55.5C 110.628,53.9102 111.295,52.5769 112.5,51.5C 114.813,50.4995 116.813,49.1662 118.5,47.5 Z"/></g>
<g><path style="opacity:1" fill="#437fa2" d="M 71.5,87.5 C 71.3893,88.1174 71.056,88.6174 70.5,89C 72.7059,91.0367 74.7059,93.2034 76.5,95.5C 75.1667,95.5 73.8333,95.5 72.5,95.5C 71.0101,93.7202 69.0101,93.0535 66.5,93.5C 65.791,92.596 64.791,92.2627 63.5,92.5C 63.703,90.3618 64.703,88.6951 66.5,87.5C 64.9991,85.0428 63.3324,85.0428 61.5,87.5C 60.52,90.0865 60.1866,92.7531 60.5,95.5C 59.1667,95.5 57.8333,95.5 56.5,95.5C 56.6567,94.1266 56.49,92.7932 56,91.5C 53.9286,90.8971 52.7619,89.5638 52.5,87.5C 53.1667,86.1667 54.1667,85.1667 55.5,84.5C 57.1667,84.5 58.8333,84.5 60.5,84.5C 60.5,82.8333 60.5,81.1667 60.5,79.5C 63.2903,79.2224 65.7903,79.8891 68,81.5C 70.3261,79.5512 72.8261,79.2178 75.5,80.5C 74.3446,81.9505 72.8446,82.9505 71,83.5C 70.235,85.0657 70.4017,86.3991 71.5,87.5 Z"/></g>
<g><path style="opacity:1" fill="#488198" d="M 383.5,51.5 C 394.783,59.4498 404.783,68.7831 413.5,79.5C 413.658,83.5512 413.158,87.5512 412,91.5C 412.667,92.8333 413.667,93.8333 415,94.5C 415.333,95.8333 415.667,97.1667 416,98.5C 417.873,97.9109 419.54,98.5776 421,100.5C 420.189,102.791 421.023,104.625 423.5,106C 423.384,107.268 423.051,108.602 422.5,110C 419.649,111.289 416.649,111.789 413.5,111.5C 413.056,107.011 412.889,102.677 413,98.5C 412.085,97.6721 411.419,96.6721 411,95.5C 410.617,96.056 410.117,96.3893 409.5,96.5C 407.507,94.5332 405.507,92.5332 403.5,90.5C 401.31,92.524 398.977,94.3573 396.5,96C 394.21,97.7772 392.543,99.9438 391.5,102.5C 390.596,101.791 390.263,100.791 390.5,99.5C 388.173,99.2471 386.173,99.9137 384.5,101.5C 383.614,100.675 383.281,99.675 383.5,98.5C 384.791,98.7373 385.791,98.404 386.5,97.5C 387.708,98.2341 389.041,98.5674 390.5,98.5C 390.657,97.1266 390.49,95.7932 390,94.5C 388.437,93.2748 387.27,91.7748 386.5,90C 386.85,88.7425 387.517,88.4092 388.5,89C 390.022,90.5218 391.522,92.0218 393,93.5C 394.31,92.8699 395.144,91.8699 395.5,90.5C 396.338,90.1583 396.672,89.4916 396.5,88.5C 397.5,88.5 398.5,88.5 399.5,88.5C 399.649,87.448 399.483,86.448 399,85.5C 396.96,83.6298 395.127,81.6298 393.5,79.5C 395.048,79.1788 395.715,78.1788 395.5,76.5C 396.833,76.5 398.167,76.5 399.5,76.5C 399.5,77.5 399.5,78.5 399.5,79.5C 402.833,79.5 406.167,79.5 409.5,79.5C 409.719,78.325 409.386,77.325 408.5,76.5C 405.01,74.5096 402.177,71.843 400,68.5C 399.586,68.9574 399.086,69.2907 398.5,69.5C 396.392,67.6179 395.059,65.2846 394.5,62.5C 390.816,60.1357 387.482,57.469 384.5,54.5C 383.89,53.609 383.557,52.609 383.5,51.5 Z"/></g>
<g><path style="opacity:1" fill="#408395" d="M 66.5,93.5 C 64.154,95.6742 62.154,98.1742 60.5,101C 63.713,104.946 67.3796,108.446 71.5,111.5C 70.1667,111.5 68.8333,111.5 67.5,111.5C 67.7852,113.288 67.4519,114.955 66.5,116.5C 63.8941,114.582 62.8941,111.916 63.5,108.5C 60.7557,109.205 58.089,109.205 55.5,108.5C 53.8155,104.541 55.1488,102.541 59.5,102.5C 59.8337,99.509 58.8337,97.1757 56.5,95.5C 57.8333,95.5 59.1667,95.5 60.5,95.5C 60.1866,92.7531 60.52,90.0865 61.5,87.5C 63.3324,85.0428 64.9991,85.0428 66.5,87.5C 64.703,88.6951 63.703,90.3618 63.5,92.5C 64.791,92.2627 65.791,92.596 66.5,93.5 Z"/></g>
<g><path style="opacity:1" fill="#3e7f9c" d="M 85.5,54.5 C 85.4606,55.5832 85.1272,56.5832 84.5,57.5C 85.5,58.3333 86.5,59.1667 87.5,60C 91.0088,59.9789 94.1755,60.8122 97,62.5C 97.3826,61.944 97.8826,61.6107 98.5,61.5C 98.8911,65.2207 100.558,68.2207 103.5,70.5C 102.833,71.1667 102.167,71.8333 101.5,72.5C 95.5713,66.8503 90.0713,67.1836 85,73.5C 83.0001,83.1641 86.8334,87.3308 96.5,86C 100.801,84.2146 102.801,81.0479 102.5,76.5C 103.959,76.5674 105.292,76.2341 106.5,75.5C 107.88,76.7065 109.047,76.3731 110,74.5C 109.973,72.5826 109.139,70.916 107.5,69.5C 108.521,67.812 109.855,66.4787 111.5,65.5C 111.343,66.8734 111.51,68.2068 112,69.5C 112.853,71.1247 113.853,71.4581 115,70.5C 115.839,71.6241 117.006,72.2908 118.5,72.5C 121.07,71.7858 123.57,70.7858 126,69.5C 126.765,69.5699 127.265,69.9033 127.5,70.5C 82.1449,100.178 53.3116,141.512 41,194.5C 30.8557,251.453 41.5224,303.786 73,351.5C 113.715,405.397 167.882,433.064 235.5,434.5C 292.529,433.888 340.696,413.221 380,372.5C 414.63,334.178 432.797,288.845 434.5,236.5C 434.134,207.316 427.801,179.649 415.5,153.5C 397.61,114.941 370.277,84.9413 333.5,63.5C 333.5,62.1667 333.5,60.8333 333.5,59.5C 336.381,60.2737 339.048,61.6071 341.5,63.5C 342.584,63.315 343.584,62.9817 344.5,62.5C 347.076,63.0561 349.743,63.2227 352.5,63C 354.521,65.3407 356.188,67.8407 357.5,70.5C 358.919,69.9953 359.585,68.9953 359.5,67.5C 360.434,66.4324 360.768,65.099 360.5,63.5C 362.167,63.5 363.833,63.5 365.5,63.5C 366.115,67.0075 367.115,70.3409 368.5,73.5C 365.99,72.2166 363.323,71.2166 360.5,70.5C 362.272,77.8994 366.105,79.2327 372,74.5C 372.986,71.2583 372.152,68.5917 369.5,66.5C 369.709,65.914 370.043,65.414 370.5,65C 372.674,65.9372 375.007,66.7706 377.5,67.5C 377.201,64.3579 375.534,62.1912 372.5,61C 370.735,60.3603 369.068,60.5269 367.5,61.5C 370.46,60.1534 373.46,58.6534 376.5,57C 379.23,56.2716 381.897,56.4383 384.5,57.5C 385.087,56.7666 385.087,55.7666 384.5,54.5C 387.482,57.469 390.816,60.1357 394.5,62.5C 395.059,65.2846 396.392,67.6179 398.5,69.5C 399.086,69.2907 399.586,68.9574 400,68.5C 402.177,71.843 405.01,74.5096 408.5,76.5C 409.386,77.325 409.719,78.325 409.5,79.5C 406.167,79.5 402.833,79.5 399.5,79.5C 399.5,78.5 399.5,77.5 399.5,76.5C 398.167,76.5 396.833,76.5 395.5,76.5C 395.715,78.1788 395.048,79.1788 393.5,79.5C 388.301,82.0232 383.968,85.6899 380.5,90.5C 382.575,92.8975 384.575,95.2308 386.5,97.5C 385.791,98.404 384.791,98.7373 383.5,98.5C 383.281,99.675 383.614,100.675 384.5,101.5C 386.173,99.9137 388.173,99.2471 390.5,99.5C 390.263,100.791 390.596,101.791 391.5,102.5C 392.15,102.804 392.817,103.137 393.5,103.5C 394.833,102.5 396.167,101.5 397.5,100.5C 397.833,101 398.167,101.5 398.5,102C 395.821,105.44 395.988,108.606 399,111.5C 400.523,109.431 401.357,107.097 401.5,104.5C 407.833,105.5 410.5,102.833 409.5,96.5C 410.117,96.3893 410.617,96.056 411,95.5C 411.419,96.6721 412.085,97.6721 413,98.5C 412.889,102.677 413.056,107.011 413.5,111.5C 416.649,111.789 419.649,111.289 422.5,110C 423.051,108.602 423.384,107.268 423.5,106C 421.023,104.625 420.189,102.791 421,100.5C 419.54,98.5776 417.873,97.9109 416,98.5C 415.667,97.1667 415.333,95.8333 415,94.5C 413.667,93.8333 412.667,92.8333 412,91.5C 413.158,87.5512 413.658,83.5512 413.5,79.5C 430.683,98.5209 444.35,119.854 454.5,143.5C 463.116,164.734 468.782,186.734 471.5,209.5C 470.92,213.649 471.586,217.316 473.5,220.5C 473.5,232.167 473.5,243.833 473.5,255.5C 471.631,257.635 470.964,260.302 471.5,263.5C 463.235,324.541 436.235,375.375 390.5,416C 382.259,422.424 373.926,428.59 365.5,434.5C 360.954,433.454 356.287,432.454 351.5,431.5C 351.5,432.5 351.5,433.5 351.5,434.5C 353.924,434.192 356.257,434.526 358.5,435.5C 356.754,437.854 354.421,438.854 351.5,438.5C 351.5,437.5 351.5,436.5 351.5,435.5C 346.227,434.399 340.894,433.733 335.5,433.5C 335.335,436.518 335.502,439.518 336,442.5C 340.349,438.438 345.183,437.605 350.5,440C 347.261,443.257 343.261,445.09 338.5,445.5C 337.558,445.392 336.725,445.059 336,444.5C 335.506,446.134 335.34,447.801 335.5,449.5C 333.473,449.338 331.473,449.505 329.5,450C 326.52,452.324 323.187,453.824 319.5,454.5C 319.5,453.5 319.5,452.5 319.5,451.5C 316.753,451.187 314.086,451.52 311.5,452.5C 312.364,454.197 313.697,455.363 315.5,456C 311.813,458.285 307.813,459.452 303.5,459.5C 303.5,460.5 303.5,461.5 303.5,462.5C 290.851,465.869 278.017,468.536 265,470.5C 263.624,470.684 262.791,471.351 262.5,472.5C 244.167,472.5 225.833,472.5 207.5,472.5C 151.411,463.651 103.578,438.984 64,398.5C 36.5598,369.004 17.5598,334.671 7,295.5C 4.20234,284.981 2.36901,274.315 1.5,263.5C 2.01017,260.612 1.34351,258.279 -0.5,256.5C -0.5,240.167 -0.5,223.833 -0.5,207.5C 0.117425,207.389 0.617425,207.056 1,206.5C 7.05749,161.764 24.2242,122.097 52.5,87.5C 52.7619,89.5638 53.9286,90.8971 56,91.5C 56.49,92.7932 56.6567,94.1266 56.5,95.5C 58.8337,97.1757 59.8337,99.509 59.5,102.5C 55.1488,102.541 53.8155,104.541 55.5,108.5C 58.089,109.205 60.7557,109.205 63.5,108.5C 62.8941,111.916 63.8941,114.582 66.5,116.5C 67.4519,114.955 67.7852,113.288 67.5,111.5C 68.8333,111.5 70.1667,111.5 71.5,111.5C 74.3892,111.001 75.0558,109.501 73.5,107C 72.552,106.517 71.552,106.351 70.5,106.5C 71.2524,103.91 72.2524,101.41 73.5,99C 73.3517,97.7441 73.0184,96.5774 72.5,95.5C 73.8333,95.5 75.1667,95.5 76.5,95.5C 78.2959,96.7927 79.9625,98.2927 81.5,100C 84.0915,100.301 84.9248,99.1341 84,96.5C 79.347,92.4912 80.1803,91.4912 86.5,93.5C 88.3186,93.6578 89.6519,92.9911 90.5,91.5C 88.8273,89.9137 86.8273,89.2471 84.5,89.5C 85.3958,84.6156 83.3958,81.9489 78.5,81.5C 75.56,82.772 73.2266,84.772 71.5,87.5C 70.4017,86.3991 70.235,85.0657 71,83.5C 72.8446,82.9505 74.3446,81.9505 75.5,80.5C 72.8261,79.2178 70.3261,79.5512 68,81.5C 65.7903,79.8891 63.2903,79.2224 60.5,79.5C 60.5,81.1667 60.5,82.8333 60.5,84.5C 58.8333,84.5 57.1667,84.5 55.5,84.5C 63.8333,72.8333 73.8333,62.8333 85.5,54.5 Z"/></g>
<g><path style="opacity:1" fill="#a1c8d5" d="M 416.5,104.5 C 418.942,104.119 419.609,104.786 418.5,106.5C 421.133,107.884 421.133,109.218 418.5,110.5C 414.743,109.068 414.076,107.068 416.5,104.5 Z"/></g>
<g><path style="opacity:1" fill="#e4f1f3" d="M 66.5,93.5 C 69.0101,93.0535 71.0101,93.7202 72.5,95.5C 73.0184,96.5774 73.3517,97.7441 73.5,99C 72.2524,101.41 71.2524,103.91 70.5,106.5C 71.552,106.351 72.552,106.517 73.5,107C 75.0558,109.501 74.3892,111.001 71.5,111.5C 67.3796,108.446 63.713,104.946 60.5,101C 62.154,98.1742 64.154,95.6742 66.5,93.5 Z"/></g>
<g><path style="opacity:1" fill="#558493" d="M 66.5,97.5 C 67.5,97.5 68.5,97.5 69.5,97.5C 69.6168,99.4835 68.9501,101.15 67.5,102.5C 65.2458,101.286 64.9125,99.6194 66.5,97.5 Z"/></g>
<g><path style="opacity:1" fill="#e4f2f3" d="M 409.5,96.5 C 410.5,102.833 407.833,105.5 401.5,104.5C 401.357,107.097 400.523,109.431 399,111.5C 395.988,108.606 395.821,105.44 398.5,102C 398.167,101.5 397.833,101 397.5,100.5C 396.167,101.5 394.833,102.5 393.5,103.5C 392.817,103.137 392.15,102.804 391.5,102.5C 392.543,99.9438 394.21,97.7772 396.5,96C 398.977,94.3573 401.31,92.524 403.5,90.5C 405.507,92.5332 407.507,94.5332 409.5,96.5 Z"/></g>
<g><path style="opacity:1" fill="#5b798c" d="M 401.5,96.5 C 404.5,96.1667 405.833,97.5 405.5,100.5C 402.5,100.833 401.167,99.5 401.5,96.5 Z"/></g>
<g><path style="opacity:1" fill="#ebf2f1" d="M 76.5,95.5 C 74.7059,93.2034 72.7059,91.0367 70.5,89C 71.056,88.6174 71.3893,88.1174 71.5,87.5C 73.2266,84.772 75.56,82.772 78.5,81.5C 83.3958,81.9489 85.3958,84.6156 84.5,89.5C 86.8273,89.2471 88.8273,89.9137 90.5,91.5C 89.6519,92.9911 88.3186,93.6578 86.5,93.5C 80.1803,91.4912 79.347,92.4912 84,96.5C 84.9248,99.1341 84.0915,100.301 81.5,100C 79.9625,98.2927 78.2959,96.7927 76.5,95.5 Z"/></g>
<g><path style="opacity:1" fill="#5a86a2" d="M 77.5,85.5 C 81.3793,86.8357 81.3793,88.5023 77.5,90.5C 75.0698,88.9626 75.0698,87.296 77.5,85.5 Z"/></g>
<g><path style="opacity:1" fill="#547176" d="M 396.5,88.5 C 396.672,89.4916 396.338,90.1583 395.5,90.5C 393.938,89.2153 392.604,87.7153 391.5,86C 393.634,84.8149 395.301,85.6482 396.5,88.5 Z"/></g>
<g><path style="opacity:1" fill="#e2f0f2" d="M 393.5,79.5 C 395.127,81.6298 396.96,83.6298 399,85.5C 399.483,86.448 399.649,87.448 399.5,88.5C 398.5,88.5 397.5,88.5 396.5,88.5C 395.301,85.6482 393.634,84.8149 391.5,86C 392.604,87.7153 393.938,89.2153 395.5,90.5C 395.144,91.8699 394.31,92.8699 393,93.5C 391.522,92.0218 390.022,90.5218 388.5,89C 387.517,88.4092 386.85,88.7425 386.5,90C 387.27,91.7748 388.437,93.2748 390,94.5C 390.49,95.7932 390.657,97.1266 390.5,98.5C 389.041,98.5674 387.708,98.2341 386.5,97.5C 384.575,95.2308 382.575,92.8975 380.5,90.5C 383.968,85.6899 388.301,82.0232 393.5,79.5 Z"/></g>
<g><path style="opacity:1" fill="#eaf2f5" d="M 101.5,72.5 C 101.433,73.9587 101.766,75.2921 102.5,76.5C 102.801,81.0479 100.801,84.2146 96.5,86C 86.8334,87.3308 83.0001,83.1641 85,73.5C 90.0713,67.1836 95.5713,66.8503 101.5,72.5 Z"/></g>
<g><path style="opacity:1" fill="#e0f2f3" d="M 380.5,67.5 C 383.839,70.5064 387.172,73.5064 390.5,76.5C 390.167,77.5 389.5,78.1667 388.5,78.5C 387.167,77.8333 385.833,77.1667 384.5,76.5C 381.833,79.8333 378.833,82.8333 375.5,85.5C 374.585,84.6721 373.919,83.6721 373.5,82.5C 376.167,79.5 378.833,76.5 381.5,73.5C 380.509,72.3348 379.509,71.1681 378.5,70C 379.056,68.9889 379.722,68.1556 380.5,67.5 Z"/></g>
<g><path style="opacity:1" fill="#439388" d="M 103.5,70.5 C 104.925,71.922 105.925,73.5887 106.5,75.5C 105.292,76.2341 103.959,76.5674 102.5,76.5C 101.766,75.2921 101.433,73.9587 101.5,72.5C 102.167,71.8333 102.833,71.1667 103.5,70.5 Z"/></g>
<g><path style="opacity:1" fill="#50838b" d="M 95.5,81.5 C 92.0529,83.2932 89.5529,82.2932 88,78.5C 88.1757,73.6697 90.6757,71.8364 95.5,73C 99.4671,75.9658 99.4671,78.7992 95.5,81.5 Z"/></g>
<g><path style="opacity:1" fill="#357db1" d="M 95.5,81.5 C 93.5159,81.516 92.5159,80.516 92.5,78.5C 92.4528,76.9996 93.1195,75.9996 94.5,75.5C 95.4656,77.396 95.7989,79.396 95.5,81.5 Z"/></g>
<g><path style="opacity:1" fill="#e9f1f5" d="M 111.5,65.5 C 109.855,66.4787 108.521,67.812 107.5,69.5C 109.139,70.916 109.973,72.5826 110,74.5C 109.047,76.3731 107.88,76.7065 106.5,75.5C 105.925,73.5887 104.925,71.922 103.5,70.5C 100.558,68.2207 98.8911,65.2207 98.5,61.5C 101.229,59.2263 104.229,57.7263 107.5,57C 107.957,57.414 108.291,57.914 108.5,58.5C 107.135,59.941 105.635,61.2744 104,62.5C 103.517,63.448 103.351,64.448 103.5,65.5C 106.167,64.5 108.833,63.5 111.5,62.5C 111.5,63.5 111.5,64.5 111.5,65.5 Z"/></g>
<g><path style="opacity:1" fill="#e4f3f7" d="M 365.5,63.5 C 366.5,63.1667 367.167,62.5 367.5,61.5C 369.068,60.5269 370.735,60.3603 372.5,61C 375.534,62.1912 377.201,64.3579 377.5,67.5C 375.007,66.7706 372.674,65.9372 370.5,65C 370.043,65.414 369.709,65.914 369.5,66.5C 372.152,68.5917 372.986,71.2583 372,74.5C 366.105,79.2327 362.272,77.8994 360.5,70.5C 363.323,71.2166 365.99,72.2166 368.5,73.5C 367.115,70.3409 366.115,67.0075 365.5,63.5 Z"/></g>
<g><path style="opacity:1" fill="#647876" d="M 356.5,57.5 C 357.465,58.7211 357.298,60.0544 356,61.5C 354.07,59.9229 354.237,58.5896 356.5,57.5 Z"/></g>
<g><path style="opacity:1" fill="#fcfdfc" d="M 368.5,111.5 C 392.084,137.333 407.75,167.333 415.5,201.5C 425.911,281.037 398.911,344.037 334.5,390.5C 280.787,422.129 224.453,427.296 165.5,406C 102.397,376.702 65.2301,327.535 54,258.5C 48.2757,185.974 74.4423,128.307 132.5,85.5C 185.495,52.2481 241.828,45.7481 301.5,66C 326.688,77.0311 349.021,92.1977 368.5,111.5 Z"/></g>
<g><path style="opacity:1" fill="#cdd5db" d="M 124.5,115.5 C 131.219,116.528 136.219,120.028 139.5,126C 140.094,126.464 140.761,126.631 141.5,126.5C 140.081,127.451 138.415,127.784 136.5,127.5C 136.5,128.5 136.5,129.5 136.5,130.5C 139.059,130.198 141.393,130.532 143.5,131.5C 140.881,131.232 138.381,131.565 136,132.5C 135.506,130.866 135.34,129.199 135.5,127.5C 131.661,127.388 131.661,126.721 135.5,125.5C 136.521,124.998 136.688,124.332 136,123.5C 132.405,122.711 128.905,121.544 125.5,120C 124.62,118.644 124.286,117.144 124.5,115.5 Z"/></g>
<g><path style="opacity:1" fill="#eff9f9" d="M 124.5,115.5 C 124.286,117.144 124.62,118.644 125.5,120C 128.905,121.544 132.405,122.711 136,123.5C 136.688,124.332 136.521,124.998 135.5,125.5C 131.661,126.721 131.661,127.388 135.5,127.5C 135.34,129.199 135.506,130.866 136,132.5C 138.381,131.565 140.881,131.232 143.5,131.5C 144.492,131.328 145.158,131.662 145.5,132.5C 143.905,134.111 142.739,136.111 142,138.5C 142.146,142.87 140.646,146.536 137.5,149.5C 132.754,151.788 127.754,153.455 122.5,154.5C 122.145,155.522 121.478,156.189 120.5,156.5C 120.5,155.167 120.5,153.833 120.5,152.5C 122.415,152.784 124.081,152.451 125.5,151.5C 130.545,150.317 134.545,147.65 137.5,143.5C 138.5,143.5 139.5,143.5 140.5,143.5C 140.26,140.421 140.593,137.421 141.5,134.5C 140.113,134.193 138.446,134.193 136.5,134.5C 135.957,137.038 134.957,139.372 133.5,141.5C 133.489,143.017 132.823,144.184 131.5,145C 129.163,146.341 126.663,147.174 124,147.5C 122.319,147.392 121.152,146.725 120.5,145.5C 121.703,144.057 122.203,142.391 122,140.5C 120.628,141.91 119.795,143.577 119.5,145.5C 119.565,145.938 119.399,146.272 119,146.5C 111.578,143.291 108.912,137.625 111,129.5C 112.81,127.176 113.977,124.842 114.5,122.5C 115.769,126.771 115.103,130.771 112.5,134.5C 114.424,137.638 115.924,140.971 117,144.5C 117.21,142.942 117.71,141.609 118.5,140.5C 118.81,141.738 119.31,141.738 120,140.5C 121.923,136.742 124.423,133.409 127.5,130.5C 127.167,130.167 126.833,129.833 126.5,129.5C 124.812,131.854 122.812,133.854 120.5,135.5C 120.67,134.178 120.337,133.011 119.5,132C 120.167,131.667 120.833,131.333 121.5,131C 118.023,128.504 118.023,126.337 121.5,124.5C 122.429,123.311 122.762,121.978 122.5,120.5C 120.5,120.5 118.5,120.5 116.5,120.5C 116.389,119.883 116.056,119.383 115.5,119C 117.5,118 119.5,117 121.5,116C 117.882,115.48 114.548,116.313 111.5,118.5C 108.591,121.344 105.924,124.344 103.5,127.5C 102.468,123.518 103.801,120.184 107.5,117.5C 112.9,114.493 118.566,113.826 124.5,115.5 Z"/></g>
<g><path style="opacity:1" fill="#fbf8fb" d="M 116.5,120.5 C 118.5,120.5 120.5,120.5 122.5,120.5C 122.762,121.978 122.429,123.311 121.5,124.5C 118.023,126.337 118.023,128.504 121.5,131C 120.833,131.333 120.167,131.667 119.5,132C 120.337,133.011 120.67,134.178 120.5,135.5C 119.833,137.167 119.167,138.833 118.5,140.5C 117.71,141.609 117.21,142.942 117,144.5C 115.924,140.971 114.424,137.638 112.5,134.5C 115.103,130.771 115.769,126.771 114.5,122.5C 115.5,122.167 116.167,121.5 116.5,120.5 Z"/></g>
<g><path style="opacity:1" fill="#a4aaaa" d="M 118.5,140.5 C 119.167,138.833 119.833,137.167 120.5,135.5C 122.812,133.854 124.812,131.854 126.5,129.5C 126.833,129.833 127.167,130.167 127.5,130.5C 124.423,133.409 121.923,136.742 120,140.5C 119.31,141.738 118.81,141.738 118.5,140.5 Z"/></g>
<g><path style="opacity:1" fill="#b1dee4" d="M 137.5,143.5 C 138.435,140.887 138.602,138.221 138,135.5C 137.668,138.543 136.168,140.543 133.5,141.5C 134.957,139.372 135.957,137.038 136.5,134.5C 138.446,134.193 140.113,134.193 141.5,134.5C 140.593,137.421 140.26,140.421 140.5,143.5C 139.5,143.5 138.5,143.5 137.5,143.5 Z"/></g>
<g><path style="opacity:1" fill="#495e71" d="M 182.5,135.5 C 185.518,135.335 188.518,135.502 191.5,136C 195.19,138.208 195.023,140.375 191,142.5C 188.566,141.678 186.066,141.344 183.5,141.5C 183.5,143.167 183.5,144.833 183.5,146.5C 187.062,146.965 190.395,148.132 193.5,150C 196.834,156.687 194.834,161.354 187.5,164C 183.313,164.825 179.48,163.992 176,161.5C 177.135,156.285 179.968,155.285 184.5,158.5C 187.856,158.113 188.856,156.447 187.5,153.5C 184.461,152.431 181.461,151.265 178.5,150C 175.475,143.914 176.808,139.081 182.5,135.5 Z"/></g>
<g><path style="opacity:1" fill="#4297a9" d="M 116.5,120.5 C 116.167,121.5 115.5,122.167 114.5,122.5C 113.977,124.842 112.81,127.176 111,129.5C 108.912,137.625 111.578,143.291 119,146.5C 119.399,146.272 119.565,145.938 119.5,145.5C 119.833,145.5 120.167,145.5 120.5,145.5C 121.152,146.725 122.319,147.392 124,147.5C 126.663,147.174 129.163,146.341 131.5,145C 132.823,144.184 133.489,143.017 133.5,141.5C 136.168,140.543 137.668,138.543 138,135.5C 138.602,138.221 138.435,140.887 137.5,143.5C 134.545,147.65 130.545,150.317 125.5,151.5C 122.5,151.5 119.5,151.5 116.5,151.5C 112.016,149.538 108.183,146.538 105,142.5C 104.506,140.866 104.34,139.199 104.5,137.5C 103.521,134.375 103.187,131.042 103.5,127.5C 105.924,124.344 108.591,121.344 111.5,118.5C 114.548,116.313 117.882,115.48 121.5,116C 119.5,117 117.5,118 115.5,119C 116.056,119.383 116.389,119.883 116.5,120.5 Z"/></g>
<g><path style="opacity:1" fill="#1fa1a5" d="M 108.5,130.5 C 108.665,133.85 108.498,137.183 108,140.5C 106.641,139.635 105.474,138.635 104.5,137.5C 104.205,135.265 104.539,133.265 105.5,131.5C 105.56,132.043 105.893,132.376 106.5,132.5C 107.182,131.757 107.849,131.091 108.5,130.5 Z"/></g>
<g><path style="opacity:1" fill="#5fc3da" d="M 108.5,130.5 C 107.849,131.091 107.182,131.757 106.5,132.5C 105.893,132.376 105.56,132.043 105.5,131.5C 106.388,126.831 109.055,122.831 113.5,119.5C 113.833,119.667 114.167,119.833 114.5,120C 111.044,122.754 109.044,126.254 108.5,130.5 Z"/></g>
<g><path style="opacity:1" fill="#f8faf8" d="M 145.5,132.5 C 158.032,138.305 160.865,147.305 154,159.5C 146.718,165.162 139.051,165.829 131,161.5C 130.751,162.624 130.251,163.624 129.5,164.5C 128.148,163.476 126.815,162.476 125.5,161.5C 124.713,159.896 123.38,159.229 121.5,159.5C 121.167,158.833 120.833,158.167 120.5,157.5C 120.5,157.167 120.5,156.833 120.5,156.5C 121.478,156.189 122.145,155.522 122.5,154.5C 127.754,153.455 132.754,151.788 137.5,149.5C 140.646,146.536 142.146,142.87 142,138.5C 142.739,136.111 143.905,134.111 145.5,132.5 Z"/></g>
<g><path style="opacity:1" fill="#aca1a2" d="M 120.5,145.5 C 120.167,145.5 119.833,145.5 119.5,145.5C 119.795,143.577 120.628,141.91 122,140.5C 122.203,142.391 121.703,144.057 120.5,145.5 Z"/></g>
<g><path style="opacity:1" fill="#7e8186" d="M 355.5,142.5 C 357.948,141.527 360.615,141.194 363.5,141.5C 363.5,142.833 363.5,144.167 363.5,145.5C 361.234,145.859 359.401,145.192 358,143.5C 357.667,143.833 357.333,144.167 357,144.5C 356.722,143.584 356.222,142.918 355.5,142.5 Z"/></g>
<g><path style="opacity:1" fill="#90afbc" d="M 368.5,111.5 C 369.978,111.238 371.311,111.571 372.5,112.5C 374.875,116.616 377.708,120.282 381,123.5C 381.667,124.833 382.333,124.833 383,123.5C 383.49,124.793 383.657,126.127 383.5,127.5C 385.144,127.286 386.644,127.62 388,128.5C 389.125,131.784 390.125,135.117 391,138.5C 392,139.167 393,139.833 394,140.5C 396.139,145.107 397.973,149.774 399.5,154.5C 401.359,154.539 402.692,153.706 403.5,152C 403.105,148.733 402.105,145.733 400.5,143C 402.18,140.602 404.514,139.435 407.5,139.5C 407.503,142.675 408.503,145.508 410.5,148C 409.296,151.191 410.463,153.357 414,154.5C 414.383,153.944 414.883,153.611 415.5,153.5C 413.281,156.742 412.114,160.408 412,164.5C 410.933,165.191 409.766,165.691 408.5,166C 408.34,173.252 410.34,179.752 414.5,185.5C 415.495,190.792 415.828,196.125 415.5,201.5C 407.75,167.333 392.084,137.333 368.5,111.5 Z"/></g>
<g><path style="opacity:1" fill="#4d5c66" d="M 328.5,144.5 C 329.833,144.5 331.167,144.5 332.5,144.5C 332.5,145.833 332.5,147.167 332.5,148.5C 329.956,148.104 327.789,148.771 326,150.5C 325.501,154.821 325.334,159.154 325.5,163.5C 324.167,163.5 322.833,163.5 321.5,163.5C 321.5,157.5 321.5,151.5 321.5,145.5C 324.215,147.076 326.548,146.742 328.5,144.5 Z"/></g>
<g><path style="opacity:1" fill="#485e73" d="M 204.5,144.5 C 207.187,144.336 209.854,144.503 212.5,145C 214.684,146.929 214.35,148.763 211.5,150.5C 205.328,149.012 203.328,151.345 205.5,157.5C 207.484,158.706 209.484,158.706 211.5,157.5C 213.922,158.904 214.589,160.737 213.5,163C 202.748,165.402 197.915,161.235 199,150.5C 200.36,147.977 202.193,145.977 204.5,144.5 Z"/></g>
<g><path style="opacity:1" fill="#495e71" d="M 254.5,144.5 C 258.412,145.137 262.245,145.137 266,144.5C 268.145,144.396 269.979,145.063 271.5,146.5C 275.642,143.593 279.476,143.926 283,147.5C 283.499,152.823 283.666,158.156 283.5,163.5C 281.5,163.5 279.5,163.5 277.5,163.5C 277.5,158.833 277.5,154.167 277.5,149.5C 275.549,149.227 274.049,149.893 273,151.5C 272.501,155.486 272.334,159.486 272.5,163.5C 270.5,163.5 268.5,163.5 266.5,163.5C 266.666,159.154 266.499,154.821 266,150.5C 263.978,149.009 262.312,149.342 261,151.5C 260.501,155.486 260.334,159.486 260.5,163.5C 258.5,163.5 256.5,163.5 254.5,163.5C 254.5,157.167 254.5,150.833 254.5,144.5 Z"/></g>
<g><path style="opacity:1" fill="#778794" d="M 238.5,145.5 C 236.833,145.5 235.167,145.5 233.5,145.5C 233.5,150.167 233.5,154.833 233.5,159.5C 232.513,154.695 232.179,149.695 232.5,144.5C 234.735,144.205 236.735,144.539 238.5,145.5 Z"/></g>
<g><path style="opacity:1" fill="#9bb7be" d="M 116.5,151.5 C 119.5,151.5 122.5,151.5 125.5,151.5C 124.081,152.451 122.415,152.784 120.5,152.5C 120.5,153.833 120.5,155.167 120.5,156.5C 120.5,156.833 120.5,157.167 120.5,157.5C 119.526,156.365 118.359,155.365 117,154.5C 116.601,154.728 116.435,155.062 116.5,155.5C 116.5,154.167 116.5,152.833 116.5,151.5 Z"/></g>
<g><path style="opacity:1" fill="#4a5b6c" d="M 217.5,144.5 C 221.871,145.538 226.205,145.538 230.5,144.5C 230.5,146.167 230.5,147.833 230.5,149.5C 228.064,149.317 225.897,149.984 224,151.5C 223.501,155.486 223.334,159.486 223.5,163.5C 221.5,163.5 219.5,163.5 217.5,163.5C 217.5,157.167 217.5,150.833 217.5,144.5 Z"/></g>
<g><path style="opacity:1" fill="#515f6d" d="M 304.5,144.5 C 313.74,144.168 317.907,148.502 317,157.5C 314.081,163.025 309.581,164.858 303.5,163C 295.496,156.478 295.829,150.311 304.5,144.5 Z"/></g>
<g><path style="opacity:1" fill="#768283" d="M 120.5,157.5 C 120.833,158.167 121.167,158.833 121.5,159.5C 121.5,160.167 121.5,160.833 121.5,161.5C 120.571,160.064 119.405,158.731 118,157.5C 117.601,157.728 117.435,158.062 117.5,158.5C 116.596,157.791 116.263,156.791 116.5,155.5C 116.435,155.062 116.601,154.728 117,154.5C 118.359,155.365 119.526,156.365 120.5,157.5 Z"/></g>
<g><path style="opacity:1" fill="#f2f7f7" d="M 304.5,148.5 C 312.744,148.228 315.078,151.728 311.5,159C 306.016,161.759 303.016,160.092 302.5,154C 302.395,151.822 303.061,149.988 304.5,148.5 Z"/></g>
<g><path style="opacity:1" fill="#535c64" d="M 289.5,158.5 C 293.161,158.35 294.161,159.85 292.5,163C 288.707,163.487 287.707,161.987 289.5,158.5 Z"/></g>
<g><path style="opacity:1" fill="#4a5d6f" d="M 233.5,159.5 C 233.5,154.833 233.5,150.167 233.5,145.5C 235.167,145.5 236.833,145.5 238.5,145.5C 238.335,149.182 238.501,152.848 239,156.5C 240.667,159.167 242.333,159.167 244,156.5C 244.499,152.514 244.666,148.514 244.5,144.5C 246.5,144.5 248.5,144.5 250.5,144.5C 250.5,150.833 250.5,157.167 250.5,163.5C 245.538,162.64 240.538,162.473 235.5,163C 234.177,162.184 233.511,161.017 233.5,159.5 Z"/></g>
<g><path style="opacity:1" fill="#365874" d="M 245.5,145.5 C 246.833,145.5 248.167,145.5 249.5,145.5C 249.5,150.167 249.5,154.833 249.5,159.5C 248.167,159.5 246.833,159.5 245.5,159.5C 245.5,154.833 245.5,150.167 245.5,145.5 Z"/></g>
<g><path style="opacity:1" fill="#effbfc" d="M 454.5,143.5 C 455.5,143.5 456.5,143.5 457.5,143.5C 459.287,150.196 461.287,156.863 463.5,163.5C 466.625,166.633 468.958,170.299 470.5,174.5C 469.383,175.949 468.716,177.616 468.5,179.5C 469.489,184.245 471.155,184.245 473.5,179.5C 473.5,189.5 473.5,199.5 473.5,209.5C 472.833,209.5 472.167,209.5 471.5,209.5C 468.782,186.734 463.116,164.734 454.5,143.5 Z"/></g>
<g><path style="opacity:1" fill="#4a5b6f" d="M 141.5,126.5 C 162.611,132.63 168.111,145.63 158,165.5C 150.833,172.219 142.333,174.719 132.5,173C 125.038,170.705 120.038,165.871 117.5,158.5C 117.435,158.062 117.601,157.728 118,157.5C 119.405,158.731 120.571,160.064 121.5,161.5C 124.272,165.387 127.939,168.054 132.5,169.5C 134.117,170.972 136.117,171.639 138.5,171.5C 141.032,171.046 143.365,170.88 145.5,171C 145.833,170.667 146.167,170.333 146.5,170C 142.118,169.708 137.785,169.208 133.5,168.5C 129.969,167.303 126.969,165.303 124.5,162.5C 124.624,161.893 124.957,161.56 125.5,161.5C 126.815,162.476 128.148,163.476 129.5,164.5C 130.251,163.624 130.751,162.624 131,161.5C 139.051,165.829 146.718,165.162 154,159.5C 160.865,147.305 158.032,138.305 145.5,132.5C 145.158,131.662 144.492,131.328 143.5,131.5C 141.393,130.532 139.059,130.198 136.5,130.5C 136.5,129.5 136.5,128.5 136.5,127.5C 138.415,127.784 140.081,127.451 141.5,126.5 Z"/></g>
<g><path style="opacity:1" fill="#a8b7c6" d="M 121.5,159.5 C 123.38,159.229 124.713,159.896 125.5,161.5C 124.957,161.56 124.624,161.893 124.5,162.5C 126.969,165.303 129.969,167.303 133.5,168.5C 133.5,169.167 133.167,169.5 132.5,169.5C 127.939,168.054 124.272,165.387 121.5,161.5C 121.5,160.833 121.5,160.167 121.5,159.5 Z"/></g>
<g><path style="opacity:1" fill="#74869b" d="M 133.5,168.5 C 137.785,169.208 142.118,169.708 146.5,170C 146.167,170.333 145.833,170.667 145.5,171C 143.365,170.88 141.032,171.046 138.5,171.5C 136.117,171.639 134.117,170.972 132.5,169.5C 133.167,169.5 133.5,169.167 133.5,168.5 Z"/></g>
<g><path style="opacity:1" fill="#505f6f" d="M 340.5,144.5 C 343.528,144.339 346.361,145.006 349,146.5C 350.44,145.852 351.94,145.519 353.5,145.5C 353.666,152.175 353.5,158.842 353,165.5C 350.27,172.053 345.437,174.22 338.5,172C 336.777,171.477 335.444,170.477 334.5,169C 334.667,167.5 335.5,166.667 337,166.5C 341.015,169.08 345.015,169.08 349,166.5C 349.667,164.833 349.667,163.167 349,161.5C 337.771,165.62 333.105,161.62 335,149.5C 336.406,147.256 338.239,145.59 340.5,144.5 Z"/></g>
<g><path style="opacity:1" fill="#f1f5f5" d="M 340.5,148.5 C 348.991,147.99 351.324,151.49 347.5,159C 342.145,161.328 338.812,159.661 337.5,154C 338.124,151.915 339.124,150.082 340.5,148.5 Z"/></g>
<g><path style="opacity:1" fill="#3a7ea2" d="M 111.5,210.5 C 128.176,209.906 144.676,211.24 161,214.5C 162.03,214.164 162.53,213.497 162.5,212.5C 164.368,213.263 166.035,214.263 167.5,215.5C 165.883,216.038 164.216,216.371 162.5,216.5C 162.5,217.5 162.5,218.5 162.5,219.5C 156.336,217.772 150.003,217.106 143.5,217.5C 143.5,216.167 143.5,214.833 143.5,213.5C 133.167,213.5 122.833,213.5 112.5,213.5C 112.167,213.5 111.833,213.5 111.5,213.5C 111.5,212.5 111.5,211.5 111.5,210.5 Z"/></g>
<g><path style="opacity:1" fill="#458292" d="M 111.5,210.5 C 125.327,209.339 139.327,209.173 153.5,210C 156.52,210.901 159.52,211.734 162.5,212.5C 162.53,213.497 162.03,214.164 161,214.5C 144.676,211.24 128.176,209.906 111.5,210.5 Z"/></g>
<g><path style="opacity:1" fill="#427e91" d="M 112.5,213.5 C 122.833,213.5 133.167,213.5 143.5,213.5C 143.5,214.833 143.5,216.167 143.5,217.5C 133.167,217.5 122.833,217.5 112.5,217.5C 112.5,216.167 112.5,214.833 112.5,213.5 Z"/></g>
<g><path style="opacity:1" fill="#457e94" d="M 294.5,223.5 C 293.5,223.5 292.5,223.5 291.5,223.5C 291.675,220.671 290.342,219.004 287.5,218.5C 282.208,217.505 276.875,217.172 271.5,217.5C 271.5,218.833 271.5,220.167 271.5,221.5C 276.875,221.172 282.208,221.505 287.5,222.5C 283.217,223.492 278.884,223.826 274.5,223.5C 273.874,227.375 275.541,229.209 279.5,229C 280.999,229.838 281.332,230.671 280.5,231.5C 279.503,252.66 279.169,273.993 279.5,295.5C 273.355,296.49 267.022,296.823 260.5,296.5C 260.5,293.5 260.5,290.5 260.5,287.5C 261.675,287.281 262.675,287.614 263.5,288.5C 262.233,290.371 262.233,292.204 263.5,294C 266.146,294.497 268.813,294.664 271.5,294.5C 271.5,293.167 271.5,291.833 271.5,290.5C 273.391,291.536 275.224,291.536 277,290.5C 277.667,278.833 277.667,267.167 277,255.5C 274.659,244.811 272.492,234.144 270.5,223.5C 267.166,219.723 263.833,219.723 260.5,223.5C 260.5,218.833 260.5,214.167 260.5,209.5C 270.19,209.168 279.856,209.502 289.5,210.5C 291.37,214.779 293.036,219.112 294.5,223.5 Z"/></g>
<g><path style="opacity:1" fill="#377fa2" d="M 271.5,210.5 C 276.833,210.5 282.167,210.5 287.5,210.5C 287.5,211.833 287.5,213.167 287.5,214.5C 280.386,213.909 273.553,214.909 267,217.5C 266.228,217.355 265.561,217.022 265,216.5C 264.506,214.866 264.34,213.199 264.5,211.5C 267.059,211.802 269.393,211.468 271.5,210.5 Z"/></g>
<g><path style="opacity:1" fill="#78b0c8" d="M 471.5,209.5 C 472.167,209.5 472.833,209.5 473.5,209.5C 473.5,213.167 473.5,216.833 473.5,220.5C 471.586,217.316 470.92,213.649 471.5,209.5 Z"/></g>
<g><path style="opacity:1" fill="#3f7f9b" d="M 111.5,213.5 C 111.833,213.5 112.167,213.5 112.5,213.5C 112.5,214.833 112.5,216.167 112.5,217.5C 122.833,217.5 133.167,217.5 143.5,217.5C 150.003,217.106 156.336,217.772 162.5,219.5C 162.5,218.5 162.5,217.5 162.5,216.5C 164.216,216.371 165.883,216.038 167.5,215.5C 172.575,218.27 175.742,222.604 177,228.5C 180.251,247.7 172.418,259.033 153.5,262.5C 145.648,262.175 137.982,262.508 130.5,263.5C 129.954,274.089 129.12,284.756 128,295.5C 122.5,294.189 117,294.189 111.5,295.5C 111.5,268.167 111.5,240.833 111.5,213.5 Z"/></g>
<g><path style="opacity:1" fill="#fbfef3" d="M 255.5,223.5 C 257.181,244.853 258.181,266.519 258.5,288.5C 258.167,289.5 257.5,290.167 256.5,290.5C 255.5,268.177 255.167,245.843 255.5,223.5 Z"/></g>
<g><path style="opacity:1" fill="#3f7e9e" d="M 271.5,290.5 C 271.5,291.833 271.5,293.167 271.5,294.5C 268.813,294.664 266.146,294.497 263.5,294C 262.233,292.204 262.233,290.371 263.5,288.5C 262.675,287.614 261.675,287.281 260.5,287.5C 260.5,266.167 260.5,244.833 260.5,223.5C 263.833,219.723 267.166,219.723 270.5,223.5C 272.492,234.144 274.659,244.811 277,255.5C 277.667,267.167 277.667,278.833 277,290.5C 275.224,291.536 273.391,291.536 271.5,290.5 Z"/></g>
<g><path style="opacity:1" fill="#3a8199" d="M 271.5,290.5 C 269.167,289.833 266.833,289.167 264.5,288.5C 264.5,266.833 264.5,245.167 264.5,223.5C 265.833,223.5 267.167,223.5 268.5,223.5C 268.5,244.833 268.5,266.167 268.5,287.5C 269.5,287.5 270.5,287.5 271.5,287.5C 271.5,288.5 271.5,289.5 271.5,290.5 Z"/></g>
<g><path style="opacity:1" fill="#3e7e9d" d="M 294.5,223.5 C 294.5,223.833 294.5,224.167 294.5,224.5C 294.881,226.942 294.214,227.609 292.5,226.5C 291.808,227.025 291.308,227.692 291,228.5C 290.765,232.32 289.932,235.987 288.5,239.5C 287.833,237.5 287.167,235.5 286.5,233.5C 285.293,235.665 283.96,237.665 282.5,239.5C 282.037,236.779 281.371,234.112 280.5,231.5C 281.332,230.671 280.999,229.838 279.5,229C 275.541,229.209 273.874,227.375 274.5,223.5C 278.884,223.826 283.217,223.492 287.5,222.5C 282.208,221.505 276.875,221.172 271.5,221.5C 271.5,220.167 271.5,218.833 271.5,217.5C 276.875,217.172 282.208,217.505 287.5,218.5C 290.342,219.004 291.675,220.671 291.5,223.5C 292.5,223.5 293.5,223.5 294.5,223.5 Z"/></g>
<g><path style="opacity:1" fill="#f7fbfa" d="M 147.5,226.5 C 156.081,228.247 158.914,233.247 156,241.5C 153.92,243.123 151.754,244.623 149.5,246C 143.509,246.499 137.509,246.666 131.5,246.5C 131.5,239.833 131.5,233.167 131.5,226.5C 136.833,226.5 142.167,226.5 147.5,226.5 Z"/></g>
<g><path style="opacity:1" fill="#88aab7" d="M 147.5,226.5 C 142.167,226.5 136.833,226.5 131.5,226.5C 131.5,233.167 131.5,239.833 131.5,246.5C 130.509,239.687 130.175,232.687 130.5,225.5C 136.358,225.178 142.025,225.511 147.5,226.5 Z"/></g>
<g><path style="opacity:1" fill="#438097" d="M 220.5,245.5 C 219.761,245.369 219.094,245.536 218.5,246C 219.917,250.178 218.251,252.178 213.5,252C 209.81,254.116 209.81,255.949 213.5,257.5C 216.768,258.487 220.102,258.82 223.5,258.5C 223.014,261.755 224.014,264.422 226.5,266.5C 228.712,265.45 230.046,266.283 230.5,269C 231.426,272.139 231.592,275.306 231,278.5C 230.5,279.667 229.667,280.5 228.5,281C 233.208,280.079 235.542,282.246 235.5,287.5C 236.833,287.5 238.167,287.5 239.5,287.5C 238.409,290.428 236.409,292.594 233.5,294C 224.375,298.758 214.708,300.425 204.5,299C 200,298.559 196,297.059 192.5,294.5C 196.074,295.024 199.574,295.024 203,294.5C 205.467,296.481 208.301,297.481 211.5,297.5C 215.476,296.836 219.476,296.503 223.5,296.5C 223.5,294.5 223.5,292.5 223.5,290.5C 218.167,290.5 212.833,290.5 207.5,290.5C 207.5,289.5 207.5,288.5 207.5,287.5C 206.5,287.5 205.5,287.5 204.5,287.5C 204.5,286.5 204.5,285.5 204.5,284.5C 209.058,283.996 213.558,283.329 218,282.5C 218.494,284.134 218.66,285.801 218.5,287.5C 222.37,288.244 226.204,289.244 230,290.5C 231.5,290 233,289.5 234.5,289C 231.734,288.309 231.067,286.809 232.5,284.5C 230.954,283.316 229.287,282.316 227.5,281.5C 226.972,279.664 226.306,277.997 225.5,276.5C 227.208,272.541 226.542,269.041 223.5,266C 213.899,261.849 204.232,257.849 194.5,254C 182.888,241.779 182.555,229.279 193.5,216.5C 195.264,214.722 197.264,213.389 199.5,212.5C 202.197,210.559 205.197,209.059 208.5,208C 221.84,205.424 234.007,207.924 245,215.5C 242.248,221.442 238.081,226.442 232.5,230.5C 224.182,224.272 215.682,223.939 207,229.5C 206.333,232.5 206.333,235.5 207,238.5C 210.96,242.062 215.46,244.395 220.5,245.5 Z"/></g>
<g><path style="opacity:1" fill="#3b7f9f" d="M 199.5,212.5 C 201.782,211.61 204.115,211.444 206.5,212C 203.833,212.667 203.833,213.333 206.5,214C 203.277,214.938 201.944,217.105 202.5,220.5C 204.167,220.5 205.833,220.5 207.5,220.5C 207.5,219.167 207.5,217.833 207.5,216.5C 213.802,214.963 217.136,217.296 217.5,223.5C 214.568,223.284 211.902,223.951 209.5,225.5C 208.353,225.182 207.519,224.516 207,223.5C 205.71,225.792 204.043,227.792 202,229.5C 200.273,232.618 199.439,235.951 199.5,239.5C 196.753,239.187 194.086,239.52 191.5,240.5C 194.709,241.787 197.875,241.787 201,240.5C 205.519,241.006 209.686,242.506 213.5,245C 212.027,245.71 211.36,246.876 211.5,248.5C 204.947,247.669 198.281,247.336 191.5,247.5C 191.392,245.217 190.559,243.217 189,241.5C 188.793,237.911 188.293,234.411 187.5,231C 188.469,229.242 189.636,228.742 191,229.5C 191.495,227.527 191.662,225.527 191.5,223.5C 193.833,223.5 196.167,223.5 198.5,223.5C 198.5,222.5 198.5,221.5 198.5,220.5C 196.095,219.232 194.095,219.232 192.5,220.5C 194.856,217.814 197.189,215.147 199.5,212.5 Z"/></g>
<g><path style="opacity:1" fill="#3c7f9e" d="M 220.5,245.5 C 227.948,246.413 234.282,249.413 239.5,254.5C 240.527,258.059 241.861,261.559 243.5,265C 243.166,267.175 242.166,269.008 240.5,270.5C 241.489,271.468 242.156,272.635 242.5,274C 240.176,278.155 239.176,282.655 239.5,287.5C 238.167,287.5 236.833,287.5 235.5,287.5C 235.542,282.246 233.208,280.079 228.5,281C 229.667,280.5 230.5,279.667 231,278.5C 231.592,275.306 231.426,272.139 230.5,269C 230.046,266.283 228.712,265.45 226.5,266.5C 224.014,264.422 223.014,261.755 223.5,258.5C 220.102,258.82 216.768,258.487 213.5,257.5C 209.81,255.949 209.81,254.116 213.5,252C 218.251,252.178 219.917,250.178 218.5,246C 219.094,245.536 219.761,245.369 220.5,245.5 Z"/></g>
<g><path style="opacity:1" fill="#e2fafc" d="M 280.5,231.5 C 281.371,234.112 282.037,236.779 282.5,239.5C 284.784,244.637 286.451,249.97 287.5,255.5C 286.624,255.631 285.957,255.298 285.5,254.5C 284.748,250.905 283.414,247.572 281.5,244.5C 280.833,261.662 280.167,278.662 279.5,295.5C 279.169,273.993 279.503,252.66 280.5,231.5 Z"/></g>
<g><path style="opacity:1" fill="#7cadc2" d="M -0.5,256.5 C 1.34351,258.279 2.01017,260.612 1.5,263.5C 0.833333,263.5 0.166667,263.5 -0.5,263.5C -0.5,261.167 -0.5,258.833 -0.5,256.5 Z"/></g>
<g><path style="opacity:1" fill="#b4dbe6" d="M 473.5,255.5 C 473.5,258.167 473.5,260.833 473.5,263.5C 472.833,263.5 472.167,263.5 471.5,263.5C 470.964,260.302 471.631,257.635 473.5,255.5 Z"/></g>
<g><path style="opacity:1" fill="#42809b" d="M 339.5,295.5 C 339.5,275.167 339.5,254.833 339.5,234.5C 341.486,251.802 342.153,269.468 341.5,287.5C 342.5,287.5 343.5,287.5 344.5,287.5C 344.5,271.5 344.5,255.5 344.5,239.5C 345.833,239.5 347.167,239.5 348.5,239.5C 348.5,255.5 348.5,271.5 348.5,287.5C 349.5,287.5 350.5,287.5 351.5,287.5C 351.667,271.497 351.5,255.497 351,239.5C 350.691,238.234 350.191,237.067 349.5,236C 351.389,232.164 352.055,227.997 351.5,223.5C 326.167,222.833 326.167,222.167 351.5,221.5C 351.5,220.167 351.5,218.833 351.5,217.5C 343.523,216.762 336.023,218.096 329,221.5C 328.812,223.061 329.645,223.728 331.5,223.5C 332.125,227.994 332.791,232.494 333.5,237C 333.684,238.376 334.351,239.209 335.5,239.5C 329.474,258.41 323.141,277.243 316.5,296C 311.249,296.804 306.082,296.637 301,295.5C 296.962,281.884 292.462,268.55 287.5,255.5C 286.451,249.97 284.784,244.637 282.5,239.5C 283.96,237.665 285.293,235.665 286.5,233.5C 287.167,235.5 287.833,237.5 288.5,239.5C 289.932,235.987 290.765,232.32 291,228.5C 291.308,227.692 291.808,227.025 292.5,226.5C 294.214,227.609 294.881,226.942 294.5,224.5C 299.474,237.744 304.474,251.077 309.5,264.5C 316.359,246.593 323.025,228.593 329.5,210.5C 339.478,209.501 349.478,209.168 359.5,209.5C 359.5,238.5 359.5,267.5 359.5,296.5C 352.646,296.824 345.979,296.491 339.5,295.5 Z"/></g>
<g><path style="opacity:1" fill="#d5f5fd" d="M 339.5,234.5 C 339.5,254.833 339.5,275.167 339.5,295.5C 339.163,276.644 338.163,257.978 336.5,239.5C 336.826,236.689 337.659,234.022 339,231.5C 339.483,232.448 339.649,233.448 339.5,234.5 Z"/></g>
<g><path style="opacity:1" fill="#3b809e" d="M 339.5,234.5 C 339.649,233.448 339.483,232.448 339,231.5C 337.659,234.022 336.826,236.689 336.5,239.5C 336.167,239.5 335.833,239.5 335.5,239.5C 334.351,239.209 333.684,238.376 333.5,237C 332.791,232.494 332.125,227.994 331.5,223.5C 329.645,223.728 328.812,223.061 329,221.5C 336.023,218.096 343.523,216.762 351.5,217.5C 351.5,218.833 351.5,220.167 351.5,221.5C 326.167,222.167 326.167,222.833 351.5,223.5C 352.055,227.997 351.389,232.164 349.5,236C 350.191,237.067 350.691,238.234 351,239.5C 351.5,255.497 351.667,271.497 351.5,287.5C 350.5,287.5 349.5,287.5 348.5,287.5C 348.5,271.5 348.5,255.5 348.5,239.5C 347.167,239.5 345.833,239.5 344.5,239.5C 344.5,255.5 344.5,271.5 344.5,287.5C 343.5,287.5 342.5,287.5 341.5,287.5C 342.153,269.468 341.486,251.802 339.5,234.5 Z"/></g>
<g><path style="opacity:1" fill="#3b7fa0" d="M 352.5,223.5 C 353.833,223.5 355.167,223.5 356.5,223.5C 356.667,247.502 356.5,271.502 356,295.5C 355.585,293.709 354.585,292.376 353,291.5C 352.5,268.836 352.333,246.169 352.5,223.5 Z"/></g>
<g><path style="opacity:1" fill="#90b0bc" d="M 153.5,262.5 C 146.352,263.492 139.019,263.825 131.5,263.5C 131.5,274.833 131.5,286.167 131.5,297.5C 124.646,297.824 117.979,297.491 111.5,296.5C 117.833,296.5 124.167,296.5 130.5,296.5C 130.5,285.5 130.5,274.5 130.5,263.5C 137.982,262.508 145.648,262.175 153.5,262.5 Z"/></g>
<g><path style="opacity:1" fill="#4c7c8f" d="M 239.5,254.5 C 244.807,258.47 246.807,263.803 245.5,270.5C 246.218,276.399 244.885,281.733 241.5,286.5C 241.043,287.298 240.376,287.631 239.5,287.5C 239.176,282.655 240.176,278.155 242.5,274C 242.156,272.635 241.489,271.468 240.5,270.5C 242.166,269.008 243.166,267.175 243.5,265C 241.861,261.559 240.527,258.059 239.5,254.5 Z"/></g>
<g><path style="opacity:1" fill="#4e7d91" d="M 203.5,279.5 C 202.448,279.351 201.448,279.517 200.5,280C 197.942,285.137 194.275,286.47 189.5,284C 188.76,285.785 188.093,287.618 187.5,289.5C 188.689,290.429 190.022,290.762 191.5,290.5C 191.433,291.959 191.766,293.292 192.5,294.5C 189.733,293.949 187.4,292.616 185.5,290.5C 184.112,289.409 183.612,288.076 184,286.5C 188.376,282.292 192.543,277.959 196.5,273.5C 198.878,275.552 201.211,277.552 203.5,279.5 Z"/></g>
<g><path style="opacity:1" fill="#fcfdfd" d="M 471.5,263.5 C 472.167,263.5 472.833,263.5 473.5,263.5C 473.5,333.167 473.5,402.833 473.5,472.5C 408.5,472.5 343.5,472.5 278.5,472.5C 279.791,470.685 281.624,469.685 284,469.5C 290.558,468.785 297.058,467.785 303.5,466.5C 303.5,465.5 303.5,464.5 303.5,463.5C 306.636,464.021 308.97,463.021 310.5,460.5C 329.923,454.137 348.256,445.47 365.5,434.5C 373.926,428.59 382.259,422.424 390.5,416C 436.235,375.375 463.235,324.541 471.5,263.5 Z"/></g>
<g><path style="opacity:1" fill="#3d7f9d" d="M 225.5,276.5 C 226.306,277.997 226.972,279.664 227.5,281.5C 229.287,282.316 230.954,283.316 232.5,284.5C 231.067,286.809 231.734,288.309 234.5,289C 233,289.5 231.5,290 230,290.5C 226.204,289.244 222.37,288.244 218.5,287.5C 218.66,285.801 218.494,284.134 218,282.5C 213.558,283.329 209.058,283.996 204.5,284.5C 204.5,285.5 204.5,286.5 204.5,287.5C 205.5,287.5 206.5,287.5 207.5,287.5C 207.5,288.5 207.5,289.5 207.5,290.5C 212.833,290.5 218.167,290.5 223.5,290.5C 223.5,292.5 223.5,294.5 223.5,296.5C 219.476,296.503 215.476,296.836 211.5,297.5C 208.301,297.481 205.467,296.481 203,294.5C 199.574,295.024 196.074,295.024 192.5,294.5C 191.766,293.292 191.433,291.959 191.5,290.5C 190.022,290.762 188.689,290.429 187.5,289.5C 188.093,287.618 188.76,285.785 189.5,284C 194.275,286.47 197.942,285.137 200.5,280C 201.448,279.517 202.448,279.351 203.5,279.5C 211.372,281.611 218.705,280.611 225.5,276.5 Z"/></g>
<g><path style="opacity:1" fill="#467586" d="M 130.5,263.5 C 130.5,274.5 130.5,285.5 130.5,296.5C 124.167,296.5 117.833,296.5 111.5,296.5C 111.5,296.167 111.5,295.833 111.5,295.5C 117,294.189 122.5,294.189 128,295.5C 129.12,284.756 129.954,274.089 130.5,263.5 Z"/></g>
<g><path style="opacity:1" fill="#fcfdfd" d="M -0.5,263.5 C 0.166667,263.5 0.833333,263.5 1.5,263.5C 2.36901,274.315 4.20234,284.981 7,295.5C 17.5598,334.671 36.5598,369.004 64,398.5C 103.578,438.984 151.411,463.651 207.5,472.5C 138.167,472.5 68.8333,472.5 -0.5,472.5C -0.5,402.833 -0.5,333.167 -0.5,263.5 Z"/></g>
<g><path style="opacity:1" fill="#477d93" d="M 365.5,434.5 C 348.256,445.47 329.923,454.137 310.5,460.5C 308.167,461.167 305.833,461.833 303.5,462.5C 303.5,461.5 303.5,460.5 303.5,459.5C 307.813,459.452 311.813,458.285 315.5,456C 313.697,455.363 312.364,454.197 311.5,452.5C 314.086,451.52 316.753,451.187 319.5,451.5C 319.5,452.5 319.5,453.5 319.5,454.5C 323.187,453.824 326.52,452.324 329.5,450C 331.473,449.505 333.473,449.338 335.5,449.5C 335.34,447.801 335.506,446.134 336,444.5C 336.725,445.059 337.558,445.392 338.5,445.5C 343.261,445.09 347.261,443.257 350.5,440C 345.183,437.605 340.349,438.438 336,442.5C 335.502,439.518 335.335,436.518 335.5,433.5C 340.894,433.733 346.227,434.399 351.5,435.5C 351.5,436.5 351.5,437.5 351.5,438.5C 354.421,438.854 356.754,437.854 358.5,435.5C 356.257,434.526 353.924,434.192 351.5,434.5C 351.5,433.5 351.5,432.5 351.5,431.5C 356.287,432.454 360.954,433.454 365.5,434.5 Z"/></g>
<g><path style="opacity:1" fill="#e2f6f7" d="M 310.5,460.5 C 308.97,463.021 306.636,464.021 303.5,463.5C 303.5,464.5 303.5,465.5 303.5,466.5C 297.058,467.785 290.558,468.785 284,469.5C 281.624,469.685 279.791,470.685 278.5,472.5C 273.167,472.5 267.833,472.5 262.5,472.5C 262.791,471.351 263.624,470.684 265,470.5C 278.017,468.536 290.851,465.869 303.5,462.5C 305.833,461.833 308.167,461.167 310.5,460.5 Z"/></g>
</svg>
